<mxfile host="app.diagrams.net" modified="2024-06-29T17:54:39.755Z" agent="Mozilla/5.0 (Windows NT 10.0; Win64; x64) AppleWebKit/537.36 (KHTML, like Gecko) Chrome/126.0.0.0 Safari/537.36" etag="rNd4b5LdGJmT-Nkk8fau" version="24.6.4" type="github" pages="12">
  <diagram name="Halaman-1" id="JcwJ7gyEvm2YHiHMCXI9">
    <mxGraphModel dx="2200" dy="1210" grid="0" gridSize="10" guides="1" tooltips="1" connect="1" arrows="1" fold="1" page="0" pageScale="1" pageWidth="827" pageHeight="1169" math="0" shadow="0">
      <root>
        <mxCell id="0" />
        <mxCell id="1" parent="0" />
      </root>
    </mxGraphModel>
  </diagram>
  <diagram id="A6Yohyh8K5ME4GIAFxsX" name="Halaman-2">
    <mxGraphModel dx="1657" dy="691" grid="0" gridSize="10" guides="1" tooltips="1" connect="1" arrows="1" fold="1" page="0" pageScale="1" pageWidth="827" pageHeight="1169" math="0" shadow="0">
      <root>
        <mxCell id="0" />
        <mxCell id="1" parent="0" />
        <mxCell id="GuLQQbHvbRoRbeXmJqpO-1" value="Donatur" style="rounded=0;whiteSpace=wrap;html=1;" vertex="1" parent="1">
          <mxGeometry x="-294" y="24" width="306" height="60" as="geometry" />
        </mxCell>
        <mxCell id="GuLQQbHvbRoRbeXmJqpO-2" value="Admin" style="rounded=0;whiteSpace=wrap;html=1;" vertex="1" parent="1">
          <mxGeometry x="12" y="24" width="306" height="60" as="geometry" />
        </mxCell>
        <mxCell id="GuLQQbHvbRoRbeXmJqpO-3" value="" style="rounded=0;whiteSpace=wrap;html=1;" vertex="1" parent="1">
          <mxGeometry x="-294" y="84" width="306" height="974" as="geometry" />
        </mxCell>
        <mxCell id="GuLQQbHvbRoRbeXmJqpO-4" value="" style="rounded=0;whiteSpace=wrap;html=1;" vertex="1" parent="1">
          <mxGeometry x="12" y="84" width="306" height="974" as="geometry" />
        </mxCell>
        <mxCell id="GuLQQbHvbRoRbeXmJqpO-5" style="edgeStyle=none;curved=1;rounded=0;orthogonalLoop=1;jettySize=auto;html=1;fontSize=12;startSize=8;endSize=8;" edge="1" parent="1" source="GuLQQbHvbRoRbeXmJqpO-6" target="GuLQQbHvbRoRbeXmJqpO-10">
          <mxGeometry relative="1" as="geometry" />
        </mxCell>
        <mxCell id="GuLQQbHvbRoRbeXmJqpO-6" value="Donatur mendatangi asrama terdekat" style="rounded=1;whiteSpace=wrap;html=1;" vertex="1" parent="1">
          <mxGeometry x="-234" y="148" width="186" height="60" as="geometry" />
        </mxCell>
        <mxCell id="GuLQQbHvbRoRbeXmJqpO-7" style="edgeStyle=none;curved=1;rounded=0;orthogonalLoop=1;jettySize=auto;html=1;fontSize=12;startSize=8;endSize=8;" edge="1" parent="1" source="GuLQQbHvbRoRbeXmJqpO-8" target="GuLQQbHvbRoRbeXmJqpO-6">
          <mxGeometry relative="1" as="geometry" />
        </mxCell>
        <mxCell id="GuLQQbHvbRoRbeXmJqpO-8" value="" style="ellipse;whiteSpace=wrap;html=1;aspect=fixed;fillColor=#000000;" vertex="1" parent="1">
          <mxGeometry x="-150.5" y="104" width="19" height="19" as="geometry" />
        </mxCell>
        <mxCell id="GuLQQbHvbRoRbeXmJqpO-9" style="edgeStyle=none;curved=1;rounded=0;orthogonalLoop=1;jettySize=auto;html=1;fontSize=12;startSize=8;endSize=8;" edge="1" parent="1" source="GuLQQbHvbRoRbeXmJqpO-10" target="GuLQQbHvbRoRbeXmJqpO-12">
          <mxGeometry relative="1" as="geometry" />
        </mxCell>
        <mxCell id="GuLQQbHvbRoRbeXmJqpO-10" value="Admin menyambut kedatangan donatur" style="rounded=1;whiteSpace=wrap;html=1;" vertex="1" parent="1">
          <mxGeometry x="72" y="148" width="186" height="60" as="geometry" />
        </mxCell>
        <mxCell id="GuLQQbHvbRoRbeXmJqpO-11" style="edgeStyle=none;curved=1;rounded=0;orthogonalLoop=1;jettySize=auto;html=1;fontSize=12;startSize=8;endSize=8;" edge="1" parent="1" source="GuLQQbHvbRoRbeXmJqpO-12" target="GuLQQbHvbRoRbeXmJqpO-14">
          <mxGeometry relative="1" as="geometry" />
        </mxCell>
        <mxCell id="GuLQQbHvbRoRbeXmJqpO-12" value="Admin meminta donatur untuk&amp;nbsp; mengisi buku tamu" style="rounded=1;whiteSpace=wrap;html=1;" vertex="1" parent="1">
          <mxGeometry x="72" y="233" width="186" height="60" as="geometry" />
        </mxCell>
        <mxCell id="GuLQQbHvbRoRbeXmJqpO-13" style="edgeStyle=none;curved=1;rounded=0;orthogonalLoop=1;jettySize=auto;html=1;entryX=0.5;entryY=0;entryDx=0;entryDy=0;fontSize=12;startSize=8;endSize=8;exitX=0.5;exitY=1;exitDx=0;exitDy=0;" edge="1" parent="1" source="GuLQQbHvbRoRbeXmJqpO-14" target="GuLQQbHvbRoRbeXmJqpO-16">
          <mxGeometry relative="1" as="geometry" />
        </mxCell>
        <mxCell id="GuLQQbHvbRoRbeXmJqpO-14" value="Donatur mengisi buku tamu" style="rounded=1;whiteSpace=wrap;html=1;" vertex="1" parent="1">
          <mxGeometry x="-234" y="233" width="186" height="60" as="geometry" />
        </mxCell>
        <mxCell id="GuLQQbHvbRoRbeXmJqpO-15" style="edgeStyle=none;curved=1;rounded=0;orthogonalLoop=1;jettySize=auto;html=1;entryX=1;entryY=0.5;entryDx=0;entryDy=0;fontSize=12;startSize=8;endSize=8;" edge="1" parent="1" source="GuLQQbHvbRoRbeXmJqpO-16" target="GuLQQbHvbRoRbeXmJqpO-18">
          <mxGeometry relative="1" as="geometry" />
        </mxCell>
        <mxCell id="GuLQQbHvbRoRbeXmJqpO-16" value="Admin menanyakan maksud kedatangan donatur" style="rounded=1;whiteSpace=wrap;html=1;" vertex="1" parent="1">
          <mxGeometry x="72" y="320" width="186" height="60" as="geometry" />
        </mxCell>
        <mxCell id="GuLQQbHvbRoRbeXmJqpO-17" style="edgeStyle=none;curved=1;rounded=0;orthogonalLoop=1;jettySize=auto;html=1;entryX=0.5;entryY=0;entryDx=0;entryDy=0;fontSize=12;startSize=8;endSize=8;exitX=0.5;exitY=1;exitDx=0;exitDy=0;" edge="1" parent="1" source="GuLQQbHvbRoRbeXmJqpO-18" target="GuLQQbHvbRoRbeXmJqpO-22">
          <mxGeometry relative="1" as="geometry" />
        </mxCell>
        <mxCell id="GuLQQbHvbRoRbeXmJqpO-18" value="Donatur menyampaikan maksud kedatangannya (berdonasi)" style="rounded=1;whiteSpace=wrap;html=1;" vertex="1" parent="1">
          <mxGeometry x="-234" y="320" width="186" height="60" as="geometry" />
        </mxCell>
        <mxCell id="GuLQQbHvbRoRbeXmJqpO-19" style="edgeStyle=none;curved=1;rounded=0;orthogonalLoop=1;jettySize=auto;html=1;entryX=0.5;entryY=0;entryDx=0;entryDy=0;fontSize=12;startSize=8;endSize=8;" edge="1" parent="1" source="GuLQQbHvbRoRbeXmJqpO-20" target="GuLQQbHvbRoRbeXmJqpO-26">
          <mxGeometry relative="1" as="geometry" />
        </mxCell>
        <mxCell id="GuLQQbHvbRoRbeXmJqpO-20" value="Donatur menyampaikan maksud kedatangannya (berdonasi)" style="rounded=1;whiteSpace=wrap;html=1;" vertex="1" parent="1">
          <mxGeometry x="-234" y="405" width="186" height="60" as="geometry" />
        </mxCell>
        <mxCell id="GuLQQbHvbRoRbeXmJqpO-21" style="edgeStyle=none;curved=1;rounded=0;orthogonalLoop=1;jettySize=auto;html=1;entryX=1;entryY=0.5;entryDx=0;entryDy=0;fontSize=12;startSize=8;endSize=8;" edge="1" parent="1" source="GuLQQbHvbRoRbeXmJqpO-22" target="GuLQQbHvbRoRbeXmJqpO-20">
          <mxGeometry relative="1" as="geometry" />
        </mxCell>
        <mxCell id="GuLQQbHvbRoRbeXmJqpO-22" value="Admin menyiapkan berkas (tanda terima donasi)" style="rounded=1;whiteSpace=wrap;html=1;" vertex="1" parent="1">
          <mxGeometry x="72" y="405" width="186" height="60" as="geometry" />
        </mxCell>
        <mxCell id="GuLQQbHvbRoRbeXmJqpO-23" style="edgeStyle=none;curved=1;rounded=0;orthogonalLoop=1;jettySize=auto;html=1;entryX=0;entryY=0.5;entryDx=0;entryDy=0;fontSize=12;startSize=8;endSize=8;exitX=0.5;exitY=1;exitDx=0;exitDy=0;" edge="1" parent="1" source="GuLQQbHvbRoRbeXmJqpO-24" target="GuLQQbHvbRoRbeXmJqpO-28">
          <mxGeometry relative="1" as="geometry">
            <Array as="points">
              <mxPoint x="-141" y="632" />
            </Array>
          </mxGeometry>
        </mxCell>
        <mxCell id="GuLQQbHvbRoRbeXmJqpO-24" value="Donatur menyerahkan donasinya" style="rounded=1;whiteSpace=wrap;html=1;" vertex="1" parent="1">
          <mxGeometry x="-234" y="489" width="186" height="60" as="geometry" />
        </mxCell>
        <mxCell id="GuLQQbHvbRoRbeXmJqpO-25" style="edgeStyle=none;curved=1;rounded=0;orthogonalLoop=1;jettySize=auto;html=1;entryX=1;entryY=0.5;entryDx=0;entryDy=0;fontSize=12;startSize=8;endSize=8;" edge="1" parent="1" source="GuLQQbHvbRoRbeXmJqpO-26" target="GuLQQbHvbRoRbeXmJqpO-24">
          <mxGeometry relative="1" as="geometry" />
        </mxCell>
        <mxCell id="GuLQQbHvbRoRbeXmJqpO-26" value="Admin mengisi form berkas (tanda terima) dengan jumlah yan sesuai)" style="rounded=1;whiteSpace=wrap;html=1;" vertex="1" parent="1">
          <mxGeometry x="72" y="489" width="186" height="60" as="geometry" />
        </mxCell>
        <mxCell id="GuLQQbHvbRoRbeXmJqpO-27" style="edgeStyle=none;curved=1;rounded=0;orthogonalLoop=1;jettySize=auto;html=1;entryX=0.5;entryY=0;entryDx=0;entryDy=0;fontSize=12;startSize=8;endSize=8;" edge="1" parent="1" source="GuLQQbHvbRoRbeXmJqpO-28" target="GuLQQbHvbRoRbeXmJqpO-32">
          <mxGeometry relative="1" as="geometry" />
        </mxCell>
        <mxCell id="GuLQQbHvbRoRbeXmJqpO-28" value="Admin menyerahkan salinan tanda terima kepada donatur" style="rounded=1;whiteSpace=wrap;html=1;" vertex="1" parent="1">
          <mxGeometry x="72" y="579" width="186" height="60" as="geometry" />
        </mxCell>
        <mxCell id="GuLQQbHvbRoRbeXmJqpO-29" style="edgeStyle=none;curved=1;rounded=0;orthogonalLoop=1;jettySize=auto;html=1;entryX=0;entryY=0.5;entryDx=0;entryDy=0;fontSize=12;startSize=8;endSize=8;exitX=0.5;exitY=1;exitDx=0;exitDy=0;" edge="1" parent="1" source="GuLQQbHvbRoRbeXmJqpO-30" target="GuLQQbHvbRoRbeXmJqpO-34">
          <mxGeometry relative="1" as="geometry">
            <Array as="points">
              <mxPoint x="-157" y="795" />
            </Array>
          </mxGeometry>
        </mxCell>
        <mxCell id="GuLQQbHvbRoRbeXmJqpO-30" value="Donatur menerima tanda tanan dari admin" style="rounded=1;whiteSpace=wrap;html=1;" vertex="1" parent="1">
          <mxGeometry x="-234" y="667" width="186" height="60" as="geometry" />
        </mxCell>
        <mxCell id="GuLQQbHvbRoRbeXmJqpO-31" style="edgeStyle=none;curved=1;rounded=0;orthogonalLoop=1;jettySize=auto;html=1;entryX=1;entryY=0.5;entryDx=0;entryDy=0;fontSize=12;startSize=8;endSize=8;" edge="1" parent="1" source="GuLQQbHvbRoRbeXmJqpO-32" target="GuLQQbHvbRoRbeXmJqpO-30">
          <mxGeometry relative="1" as="geometry" />
        </mxCell>
        <mxCell id="GuLQQbHvbRoRbeXmJqpO-32" value="Admin menyanmpaikan ucapan terimakasih" style="rounded=1;whiteSpace=wrap;html=1;" vertex="1" parent="1">
          <mxGeometry x="72" y="667" width="186" height="60" as="geometry" />
        </mxCell>
        <mxCell id="GuLQQbHvbRoRbeXmJqpO-33" style="edgeStyle=none;curved=1;rounded=0;orthogonalLoop=1;jettySize=auto;html=1;entryX=0.5;entryY=0;entryDx=0;entryDy=0;fontSize=12;startSize=8;endSize=8;" edge="1" parent="1" source="GuLQQbHvbRoRbeXmJqpO-34" target="GuLQQbHvbRoRbeXmJqpO-41">
          <mxGeometry relative="1" as="geometry" />
        </mxCell>
        <mxCell id="GuLQQbHvbRoRbeXmJqpO-34" value="Admin memandu doa bersama&amp;nbsp;" style="rounded=1;whiteSpace=wrap;html=1;" vertex="1" parent="1">
          <mxGeometry x="72" y="748" width="186" height="60" as="geometry" />
        </mxCell>
        <mxCell id="GuLQQbHvbRoRbeXmJqpO-35" style="edgeStyle=none;curved=1;rounded=0;orthogonalLoop=1;jettySize=auto;html=1;entryX=0;entryY=0.5;entryDx=0;entryDy=0;fontSize=12;startSize=8;endSize=8;exitX=0.5;exitY=1;exitDx=0;exitDy=0;" edge="1" parent="1" source="GuLQQbHvbRoRbeXmJqpO-36" target="GuLQQbHvbRoRbeXmJqpO-38">
          <mxGeometry relative="1" as="geometry">
            <Array as="points">
              <mxPoint x="-141" y="954" />
            </Array>
          </mxGeometry>
        </mxCell>
        <mxCell id="GuLQQbHvbRoRbeXmJqpO-36" value="Donatur pulang" style="rounded=1;whiteSpace=wrap;html=1;" vertex="1" parent="1">
          <mxGeometry x="-234" y="830" width="186" height="60" as="geometry" />
        </mxCell>
        <mxCell id="GuLQQbHvbRoRbeXmJqpO-37" style="edgeStyle=none;curved=1;rounded=0;orthogonalLoop=1;jettySize=auto;html=1;fontSize=12;startSize=8;endSize=8;" edge="1" parent="1" source="GuLQQbHvbRoRbeXmJqpO-38" target="GuLQQbHvbRoRbeXmJqpO-42">
          <mxGeometry relative="1" as="geometry" />
        </mxCell>
        <mxCell id="GuLQQbHvbRoRbeXmJqpO-38" value="Admin mengirim &lt;i&gt;broadcast&lt;/i&gt; ucapan terimakasih ke nomor hp donatur" style="rounded=1;whiteSpace=wrap;html=1;" vertex="1" parent="1">
          <mxGeometry x="72" y="911" width="186" height="60" as="geometry" />
        </mxCell>
        <mxCell id="GuLQQbHvbRoRbeXmJqpO-39" style="edgeStyle=none;curved=1;rounded=0;orthogonalLoop=1;jettySize=auto;html=1;entryX=1;entryY=0.5;entryDx=0;entryDy=0;fontSize=12;startSize=8;endSize=8;" edge="1" parent="1" source="GuLQQbHvbRoRbeXmJqpO-41" target="GuLQQbHvbRoRbeXmJqpO-36">
          <mxGeometry relative="1" as="geometry" />
        </mxCell>
        <mxCell id="GuLQQbHvbRoRbeXmJqpO-40" style="edgeStyle=none;curved=1;rounded=0;orthogonalLoop=1;jettySize=auto;html=1;entryX=0.5;entryY=0;entryDx=0;entryDy=0;fontSize=12;startSize=8;endSize=8;" edge="1" parent="1" source="GuLQQbHvbRoRbeXmJqpO-41" target="GuLQQbHvbRoRbeXmJqpO-38">
          <mxGeometry relative="1" as="geometry" />
        </mxCell>
        <mxCell id="GuLQQbHvbRoRbeXmJqpO-41" value="" style="rhombus;whiteSpace=wrap;html=1;" vertex="1" parent="1">
          <mxGeometry x="142" y="840" width="46" height="40" as="geometry" />
        </mxCell>
        <mxCell id="GuLQQbHvbRoRbeXmJqpO-42" value="" style="ellipse;whiteSpace=wrap;html=1;aspect=fixed;fillColor=#000000;" vertex="1" parent="1">
          <mxGeometry x="155.5" y="1011" width="19" height="19" as="geometry" />
        </mxCell>
        <mxCell id="GuLQQbHvbRoRbeXmJqpO-43" value="Start" style="text;html=1;align=center;verticalAlign=middle;whiteSpace=wrap;rounded=0;fontSize=16;" vertex="1" parent="1">
          <mxGeometry x="-128" y="101" width="60" height="30" as="geometry" />
        </mxCell>
        <mxCell id="GuLQQbHvbRoRbeXmJqpO-44" value="Finish" style="text;html=1;align=center;verticalAlign=middle;whiteSpace=wrap;rounded=0;fontSize=16;" vertex="1" parent="1">
          <mxGeometry x="178" y="1005.5" width="60" height="30" as="geometry" />
        </mxCell>
      </root>
    </mxGraphModel>
  </diagram>
  <diagram id="RKvMH84Gi8jK-AhzO4uF" name="Halaman-3">
    <mxGraphModel dx="2000" dy="880" grid="0" gridSize="10" guides="1" tooltips="1" connect="1" arrows="1" fold="1" page="0" pageScale="1" pageWidth="827" pageHeight="1169" math="0" shadow="0">
      <root>
        <mxCell id="0" />
        <mxCell id="1" parent="0" />
        <mxCell id="SEgfWRcA7FWWzPmHQsHu-1" value="Admin" style="rounded=0;whiteSpace=wrap;html=1;" vertex="1" parent="1">
          <mxGeometry x="-294" y="24" width="306" height="60" as="geometry" />
        </mxCell>
        <mxCell id="SEgfWRcA7FWWzPmHQsHu-2" value="Sistem" style="rounded=0;whiteSpace=wrap;html=1;" vertex="1" parent="1">
          <mxGeometry x="12" y="24" width="306" height="60" as="geometry" />
        </mxCell>
        <mxCell id="SEgfWRcA7FWWzPmHQsHu-3" value="" style="rounded=0;whiteSpace=wrap;html=1;" vertex="1" parent="1">
          <mxGeometry x="-294" y="84" width="306" height="467" as="geometry" />
        </mxCell>
        <mxCell id="SEgfWRcA7FWWzPmHQsHu-4" value="" style="rounded=0;whiteSpace=wrap;html=1;" vertex="1" parent="1">
          <mxGeometry x="12" y="84" width="306" height="467" as="geometry" />
        </mxCell>
        <mxCell id="SEgfWRcA7FWWzPmHQsHu-5" style="edgeStyle=none;curved=1;rounded=0;orthogonalLoop=1;jettySize=auto;html=1;entryX=0;entryY=0.5;entryDx=0;entryDy=0;fontSize=12;startSize=8;endSize=8;" edge="1" parent="1" source="SEgfWRcA7FWWzPmHQsHu-6" target="SEgfWRcA7FWWzPmHQsHu-10">
          <mxGeometry relative="1" as="geometry" />
        </mxCell>
        <mxCell id="SEgfWRcA7FWWzPmHQsHu-6" value="Memasuki website" style="rounded=1;whiteSpace=wrap;html=1;" vertex="1" parent="1">
          <mxGeometry x="-234" y="148" width="186" height="60" as="geometry" />
        </mxCell>
        <mxCell id="SEgfWRcA7FWWzPmHQsHu-7" style="edgeStyle=none;curved=1;rounded=0;orthogonalLoop=1;jettySize=auto;html=1;fontSize=12;startSize=8;endSize=8;" edge="1" parent="1" source="SEgfWRcA7FWWzPmHQsHu-8" target="SEgfWRcA7FWWzPmHQsHu-6">
          <mxGeometry relative="1" as="geometry" />
        </mxCell>
        <mxCell id="SEgfWRcA7FWWzPmHQsHu-8" value="" style="ellipse;whiteSpace=wrap;html=1;aspect=fixed;fillColor=#000000;" vertex="1" parent="1">
          <mxGeometry x="-150.5" y="104" width="19" height="19" as="geometry" />
        </mxCell>
        <mxCell id="SEgfWRcA7FWWzPmHQsHu-9" style="edgeStyle=none;curved=1;rounded=0;orthogonalLoop=1;jettySize=auto;html=1;entryX=0.5;entryY=0;entryDx=0;entryDy=0;fontSize=12;startSize=8;endSize=8;" edge="1" parent="1" source="SEgfWRcA7FWWzPmHQsHu-10" target="SEgfWRcA7FWWzPmHQsHu-12">
          <mxGeometry relative="1" as="geometry" />
        </mxCell>
        <mxCell id="SEgfWRcA7FWWzPmHQsHu-10" value="menampilkan form login" style="rounded=1;whiteSpace=wrap;html=1;" vertex="1" parent="1">
          <mxGeometry x="72" y="148" width="186" height="60" as="geometry" />
        </mxCell>
        <mxCell id="SEgfWRcA7FWWzPmHQsHu-11" style="edgeStyle=none;curved=1;rounded=0;orthogonalLoop=1;jettySize=auto;html=1;entryX=0;entryY=0.5;entryDx=0;entryDy=0;fontSize=12;startSize=8;endSize=8;" edge="1" parent="1" source="SEgfWRcA7FWWzPmHQsHu-12" target="SEgfWRcA7FWWzPmHQsHu-24">
          <mxGeometry relative="1" as="geometry" />
        </mxCell>
        <mxCell id="SEgfWRcA7FWWzPmHQsHu-12" value="Mengisi form login" style="rounded=1;whiteSpace=wrap;html=1;" vertex="1" parent="1">
          <mxGeometry x="-234" y="233" width="186" height="60" as="geometry" />
        </mxCell>
        <mxCell id="SEgfWRcA7FWWzPmHQsHu-13" style="edgeStyle=none;curved=1;rounded=0;orthogonalLoop=1;jettySize=auto;html=1;fontSize=12;startSize=8;endSize=8;" edge="1" parent="1" source="SEgfWRcA7FWWzPmHQsHu-14" target="SEgfWRcA7FWWzPmHQsHu-12">
          <mxGeometry relative="1" as="geometry" />
        </mxCell>
        <mxCell id="SEgfWRcA7FWWzPmHQsHu-14" value="Mengisi ulang form login" style="rounded=1;whiteSpace=wrap;html=1;" vertex="1" parent="1">
          <mxGeometry x="-234" y="320" width="186" height="60" as="geometry" />
        </mxCell>
        <mxCell id="SEgfWRcA7FWWzPmHQsHu-15" style="edgeStyle=none;curved=1;rounded=0;orthogonalLoop=1;jettySize=auto;html=1;entryX=0.5;entryY=0;entryDx=0;entryDy=0;fontSize=12;startSize=8;endSize=8;" edge="1" parent="1" source="SEgfWRcA7FWWzPmHQsHu-16" target="SEgfWRcA7FWWzPmHQsHu-19">
          <mxGeometry relative="1" as="geometry" />
        </mxCell>
        <mxCell id="SEgfWRcA7FWWzPmHQsHu-16" value="Log out" style="rounded=1;whiteSpace=wrap;html=1;" vertex="1" parent="1">
          <mxGeometry x="-234" y="405" width="186" height="60" as="geometry" />
        </mxCell>
        <mxCell id="SEgfWRcA7FWWzPmHQsHu-17" style="edgeStyle=none;curved=1;rounded=0;orthogonalLoop=1;jettySize=auto;html=1;entryX=1;entryY=0.5;entryDx=0;entryDy=0;fontSize=12;startSize=8;endSize=8;" edge="1" parent="1" source="SEgfWRcA7FWWzPmHQsHu-18" target="SEgfWRcA7FWWzPmHQsHu-16">
          <mxGeometry relative="1" as="geometry" />
        </mxCell>
        <mxCell id="SEgfWRcA7FWWzPmHQsHu-18" value="Masuk ke menu utama" style="rounded=1;whiteSpace=wrap;html=1;" vertex="1" parent="1">
          <mxGeometry x="72" y="405" width="186" height="60" as="geometry" />
        </mxCell>
        <mxCell id="SEgfWRcA7FWWzPmHQsHu-19" value="" style="ellipse;whiteSpace=wrap;html=1;aspect=fixed;fillColor=#000000;" vertex="1" parent="1">
          <mxGeometry x="-150.5" y="498.5" width="19" height="19" as="geometry" />
        </mxCell>
        <mxCell id="SEgfWRcA7FWWzPmHQsHu-20" value="Start" style="text;html=1;align=center;verticalAlign=middle;whiteSpace=wrap;rounded=0;fontSize=16;" vertex="1" parent="1">
          <mxGeometry x="-128" y="101" width="60" height="30" as="geometry" />
        </mxCell>
        <mxCell id="SEgfWRcA7FWWzPmHQsHu-21" value="Finish" style="text;html=1;align=center;verticalAlign=middle;whiteSpace=wrap;rounded=0;fontSize=16;" vertex="1" parent="1">
          <mxGeometry x="-133.5" y="493" width="60" height="30" as="geometry" />
        </mxCell>
        <mxCell id="SEgfWRcA7FWWzPmHQsHu-22" style="edgeStyle=none;curved=1;rounded=0;orthogonalLoop=1;jettySize=auto;html=1;entryX=1;entryY=0.5;entryDx=0;entryDy=0;fontSize=12;startSize=8;endSize=8;" edge="1" parent="1" source="SEgfWRcA7FWWzPmHQsHu-24" target="SEgfWRcA7FWWzPmHQsHu-18">
          <mxGeometry relative="1" as="geometry">
            <Array as="points">
              <mxPoint x="342" y="259" />
            </Array>
          </mxGeometry>
        </mxCell>
        <mxCell id="SEgfWRcA7FWWzPmHQsHu-23" style="edgeStyle=none;curved=1;rounded=0;orthogonalLoop=1;jettySize=auto;html=1;entryX=1;entryY=0.5;entryDx=0;entryDy=0;fontSize=12;startSize=8;endSize=8;" edge="1" parent="1" source="SEgfWRcA7FWWzPmHQsHu-24" target="SEgfWRcA7FWWzPmHQsHu-14">
          <mxGeometry relative="1" as="geometry">
            <Array as="points">
              <mxPoint x="165" y="383" />
            </Array>
          </mxGeometry>
        </mxCell>
        <mxCell id="SEgfWRcA7FWWzPmHQsHu-24" value="" style="rhombus;whiteSpace=wrap;html=1;" vertex="1" parent="1">
          <mxGeometry x="142" y="243" width="46" height="40" as="geometry" />
        </mxCell>
      </root>
    </mxGraphModel>
  </diagram>
  <diagram id="7m3yPgUcY-yvpPtwsaIS" name="Halaman-4">
    <mxGraphModel dx="1257" dy="691" grid="0" gridSize="10" guides="1" tooltips="1" connect="1" arrows="1" fold="1" page="0" pageScale="1" pageWidth="827" pageHeight="1169" math="0" shadow="0">
      <root>
        <mxCell id="0" />
        <mxCell id="1" parent="0" />
        <mxCell id="y6JhgZZX4XLkGrgd9WOB-1" value="Admin" style="rounded=0;whiteSpace=wrap;html=1;" vertex="1" parent="1">
          <mxGeometry x="331" y="24" width="306" height="60" as="geometry" />
        </mxCell>
        <mxCell id="y6JhgZZX4XLkGrgd9WOB-2" value="Sistem" style="rounded=0;whiteSpace=wrap;html=1;" vertex="1" parent="1">
          <mxGeometry x="637" y="24" width="306" height="60" as="geometry" />
        </mxCell>
        <mxCell id="y6JhgZZX4XLkGrgd9WOB-3" value="" style="rounded=0;whiteSpace=wrap;html=1;" vertex="1" parent="1">
          <mxGeometry x="331" y="84" width="306" height="467" as="geometry" />
        </mxCell>
        <mxCell id="y6JhgZZX4XLkGrgd9WOB-4" value="" style="rounded=0;whiteSpace=wrap;html=1;" vertex="1" parent="1">
          <mxGeometry x="637" y="84" width="306" height="467" as="geometry" />
        </mxCell>
        <mxCell id="y6JhgZZX4XLkGrgd9WOB-5" style="edgeStyle=none;curved=1;rounded=0;orthogonalLoop=1;jettySize=auto;html=1;entryX=0;entryY=0.5;entryDx=0;entryDy=0;fontSize=12;startSize=8;endSize=8;" edge="1" parent="1" source="y6JhgZZX4XLkGrgd9WOB-6" target="y6JhgZZX4XLkGrgd9WOB-24">
          <mxGeometry relative="1" as="geometry" />
        </mxCell>
        <mxCell id="y6JhgZZX4XLkGrgd9WOB-6" value="Melakukan login" style="rounded=1;whiteSpace=wrap;html=1;" vertex="1" parent="1">
          <mxGeometry x="391" y="148" width="186" height="60" as="geometry" />
        </mxCell>
        <mxCell id="y6JhgZZX4XLkGrgd9WOB-7" style="edgeStyle=none;curved=1;rounded=0;orthogonalLoop=1;jettySize=auto;html=1;fontSize=12;startSize=8;endSize=8;" edge="1" parent="1" source="y6JhgZZX4XLkGrgd9WOB-8" target="y6JhgZZX4XLkGrgd9WOB-6">
          <mxGeometry relative="1" as="geometry" />
        </mxCell>
        <mxCell id="y6JhgZZX4XLkGrgd9WOB-8" value="" style="ellipse;whiteSpace=wrap;html=1;aspect=fixed;fillColor=#000000;" vertex="1" parent="1">
          <mxGeometry x="474.5" y="104" width="19" height="19" as="geometry" />
        </mxCell>
        <mxCell id="y6JhgZZX4XLkGrgd9WOB-9" style="edgeStyle=none;curved=1;rounded=0;orthogonalLoop=1;jettySize=auto;html=1;entryX=1;entryY=0.5;entryDx=0;entryDy=0;fontSize=12;startSize=8;endSize=8;" edge="1" parent="1" source="y6JhgZZX4XLkGrgd9WOB-10" target="y6JhgZZX4XLkGrgd9WOB-12">
          <mxGeometry relative="1" as="geometry" />
        </mxCell>
        <mxCell id="y6JhgZZX4XLkGrgd9WOB-10" value="Menampilkan halaman registrasi&amp;nbsp;" style="rounded=1;whiteSpace=wrap;html=1;" vertex="1" parent="1">
          <mxGeometry x="697" y="233" width="186" height="60" as="geometry" />
        </mxCell>
        <mxCell id="y6JhgZZX4XLkGrgd9WOB-11" style="edgeStyle=none;curved=1;rounded=0;orthogonalLoop=1;jettySize=auto;html=1;fontSize=12;startSize=8;endSize=8;" edge="1" parent="1" source="y6JhgZZX4XLkGrgd9WOB-12" target="y6JhgZZX4XLkGrgd9WOB-6">
          <mxGeometry relative="1" as="geometry" />
        </mxCell>
        <mxCell id="y6JhgZZX4XLkGrgd9WOB-12" value="Mengisi ulang form login" style="rounded=1;whiteSpace=wrap;html=1;" vertex="1" parent="1">
          <mxGeometry x="391" y="233" width="186" height="60" as="geometry" />
        </mxCell>
        <mxCell id="y6JhgZZX4XLkGrgd9WOB-13" style="edgeStyle=none;curved=1;rounded=0;orthogonalLoop=1;jettySize=auto;html=1;entryX=0.5;entryY=0;entryDx=0;entryDy=0;fontSize=12;startSize=8;endSize=8;" edge="1" parent="1" source="y6JhgZZX4XLkGrgd9WOB-14" target="y6JhgZZX4XLkGrgd9WOB-16">
          <mxGeometry relative="1" as="geometry" />
        </mxCell>
        <mxCell id="y6JhgZZX4XLkGrgd9WOB-14" value="Membuat campaign baru" style="rounded=1;whiteSpace=wrap;html=1;" vertex="1" parent="1">
          <mxGeometry x="391" y="320" width="186" height="60" as="geometry" />
        </mxCell>
        <mxCell id="y6JhgZZX4XLkGrgd9WOB-15" style="edgeStyle=none;curved=1;rounded=0;orthogonalLoop=1;jettySize=auto;html=1;entryX=0;entryY=0.5;entryDx=0;entryDy=0;fontSize=12;startSize=8;endSize=8;" edge="1" parent="1" source="y6JhgZZX4XLkGrgd9WOB-16" target="y6JhgZZX4XLkGrgd9WOB-18">
          <mxGeometry relative="1" as="geometry" />
        </mxCell>
        <mxCell id="y6JhgZZX4XLkGrgd9WOB-16" value="Mengisi form campaign" style="rounded=1;whiteSpace=wrap;html=1;" vertex="1" parent="1">
          <mxGeometry x="391" y="405" width="186" height="60" as="geometry" />
        </mxCell>
        <mxCell id="y6JhgZZX4XLkGrgd9WOB-17" style="edgeStyle=none;curved=1;rounded=0;orthogonalLoop=1;jettySize=auto;html=1;fontSize=12;startSize=8;endSize=8;" edge="1" parent="1" source="y6JhgZZX4XLkGrgd9WOB-18" target="y6JhgZZX4XLkGrgd9WOB-19">
          <mxGeometry relative="1" as="geometry" />
        </mxCell>
        <mxCell id="y6JhgZZX4XLkGrgd9WOB-18" value="menampilkan campaign penggalangan dana pada beranda halaman" style="rounded=1;whiteSpace=wrap;html=1;" vertex="1" parent="1">
          <mxGeometry x="697" y="405" width="186" height="60" as="geometry" />
        </mxCell>
        <mxCell id="y6JhgZZX4XLkGrgd9WOB-19" value="" style="ellipse;whiteSpace=wrap;html=1;aspect=fixed;fillColor=#000000;" vertex="1" parent="1">
          <mxGeometry x="780.5" y="498.5" width="19" height="19" as="geometry" />
        </mxCell>
        <mxCell id="y6JhgZZX4XLkGrgd9WOB-20" value="Start" style="text;html=1;align=center;verticalAlign=middle;whiteSpace=wrap;rounded=0;fontSize=16;" vertex="1" parent="1">
          <mxGeometry x="497" y="101" width="60" height="30" as="geometry" />
        </mxCell>
        <mxCell id="y6JhgZZX4XLkGrgd9WOB-21" value="Finish" style="text;html=1;align=center;verticalAlign=middle;whiteSpace=wrap;rounded=0;fontSize=16;" vertex="1" parent="1">
          <mxGeometry x="796" y="493" width="60" height="30" as="geometry" />
        </mxCell>
        <mxCell id="y6JhgZZX4XLkGrgd9WOB-22" style="edgeStyle=none;curved=1;rounded=0;orthogonalLoop=1;jettySize=auto;html=1;fontSize=12;startSize=8;endSize=8;" edge="1" parent="1" source="y6JhgZZX4XLkGrgd9WOB-24" target="y6JhgZZX4XLkGrgd9WOB-10">
          <mxGeometry relative="1" as="geometry" />
        </mxCell>
        <mxCell id="y6JhgZZX4XLkGrgd9WOB-23" style="edgeStyle=none;curved=1;rounded=0;orthogonalLoop=1;jettySize=auto;html=1;entryX=1;entryY=0.5;entryDx=0;entryDy=0;fontSize=12;startSize=8;endSize=8;" edge="1" parent="1" source="y6JhgZZX4XLkGrgd9WOB-24" target="y6JhgZZX4XLkGrgd9WOB-26">
          <mxGeometry relative="1" as="geometry">
            <Array as="points">
              <mxPoint x="972" y="178" />
            </Array>
          </mxGeometry>
        </mxCell>
        <mxCell id="y6JhgZZX4XLkGrgd9WOB-24" value="" style="rhombus;whiteSpace=wrap;html=1;" vertex="1" parent="1">
          <mxGeometry x="767" y="158" width="46" height="40" as="geometry" />
        </mxCell>
        <mxCell id="y6JhgZZX4XLkGrgd9WOB-25" style="edgeStyle=none;curved=1;rounded=0;orthogonalLoop=1;jettySize=auto;html=1;entryX=1;entryY=0.5;entryDx=0;entryDy=0;fontSize=12;startSize=8;endSize=8;" edge="1" parent="1" source="y6JhgZZX4XLkGrgd9WOB-26" target="y6JhgZZX4XLkGrgd9WOB-14">
          <mxGeometry relative="1" as="geometry" />
        </mxCell>
        <mxCell id="y6JhgZZX4XLkGrgd9WOB-26" value="Menampilkan menu dashboard" style="rounded=1;whiteSpace=wrap;html=1;" vertex="1" parent="1">
          <mxGeometry x="697" y="320" width="186" height="60" as="geometry" />
        </mxCell>
      </root>
    </mxGraphModel>
  </diagram>
  <diagram id="3dlEXoUVeX6K2vGIZvX5" name="Halaman-5">
    <mxGraphModel dx="1257" dy="691" grid="0" gridSize="10" guides="1" tooltips="1" connect="1" arrows="1" fold="1" page="0" pageScale="1" pageWidth="827" pageHeight="1169" math="0" shadow="0">
      <root>
        <mxCell id="0" />
        <mxCell id="1" parent="0" />
        <mxCell id="siIuDwFw6AE9mvkU0UEv-1" value="Admin" style="rounded=0;whiteSpace=wrap;html=1;" vertex="1" parent="1">
          <mxGeometry x="331" y="24" width="306" height="60" as="geometry" />
        </mxCell>
        <mxCell id="siIuDwFw6AE9mvkU0UEv-2" value="Sistem" style="rounded=0;whiteSpace=wrap;html=1;" vertex="1" parent="1">
          <mxGeometry x="637" y="24" width="306" height="60" as="geometry" />
        </mxCell>
        <mxCell id="siIuDwFw6AE9mvkU0UEv-3" value="" style="rounded=0;whiteSpace=wrap;html=1;" vertex="1" parent="1">
          <mxGeometry x="331" y="84" width="306" height="623" as="geometry" />
        </mxCell>
        <mxCell id="siIuDwFw6AE9mvkU0UEv-4" value="" style="rounded=0;whiteSpace=wrap;html=1;" vertex="1" parent="1">
          <mxGeometry x="637" y="84" width="306" height="623" as="geometry" />
        </mxCell>
        <mxCell id="siIuDwFw6AE9mvkU0UEv-5" style="edgeStyle=none;curved=1;rounded=0;orthogonalLoop=1;jettySize=auto;html=1;entryX=0;entryY=0.5;entryDx=0;entryDy=0;fontSize=12;startSize=8;endSize=8;" edge="1" parent="1" source="siIuDwFw6AE9mvkU0UEv-6" target="siIuDwFw6AE9mvkU0UEv-24">
          <mxGeometry relative="1" as="geometry" />
        </mxCell>
        <mxCell id="siIuDwFw6AE9mvkU0UEv-6" value="Melakukan login" style="rounded=1;whiteSpace=wrap;html=1;" vertex="1" parent="1">
          <mxGeometry x="391" y="148" width="186" height="60" as="geometry" />
        </mxCell>
        <mxCell id="siIuDwFw6AE9mvkU0UEv-7" style="edgeStyle=none;curved=1;rounded=0;orthogonalLoop=1;jettySize=auto;html=1;fontSize=12;startSize=8;endSize=8;" edge="1" parent="1" source="siIuDwFw6AE9mvkU0UEv-8" target="siIuDwFw6AE9mvkU0UEv-6">
          <mxGeometry relative="1" as="geometry" />
        </mxCell>
        <mxCell id="siIuDwFw6AE9mvkU0UEv-8" value="" style="ellipse;whiteSpace=wrap;html=1;aspect=fixed;fillColor=#000000;" vertex="1" parent="1">
          <mxGeometry x="474.5" y="104" width="19" height="19" as="geometry" />
        </mxCell>
        <mxCell id="siIuDwFw6AE9mvkU0UEv-9" style="edgeStyle=none;curved=1;rounded=0;orthogonalLoop=1;jettySize=auto;html=1;entryX=0.5;entryY=0;entryDx=0;entryDy=0;fontSize=12;startSize=8;endSize=8;" edge="1" parent="1" source="siIuDwFw6AE9mvkU0UEv-10" target="siIuDwFw6AE9mvkU0UEv-14">
          <mxGeometry relative="1" as="geometry" />
        </mxCell>
        <mxCell id="siIuDwFw6AE9mvkU0UEv-10" value="Menampilkan menu utama" style="rounded=1;whiteSpace=wrap;html=1;" vertex="1" parent="1">
          <mxGeometry x="697" y="233" width="186" height="60" as="geometry" />
        </mxCell>
        <mxCell id="siIuDwFw6AE9mvkU0UEv-11" style="edgeStyle=none;curved=1;rounded=0;orthogonalLoop=1;jettySize=auto;html=1;fontSize=12;startSize=8;endSize=8;" edge="1" parent="1" source="siIuDwFw6AE9mvkU0UEv-12" target="siIuDwFw6AE9mvkU0UEv-6">
          <mxGeometry relative="1" as="geometry" />
        </mxCell>
        <mxCell id="siIuDwFw6AE9mvkU0UEv-12" value="Mengisi ulang form login" style="rounded=1;whiteSpace=wrap;html=1;" vertex="1" parent="1">
          <mxGeometry x="391" y="233" width="186" height="60" as="geometry" />
        </mxCell>
        <mxCell id="siIuDwFw6AE9mvkU0UEv-13" style="edgeStyle=none;curved=1;rounded=0;orthogonalLoop=1;jettySize=auto;html=1;entryX=0;entryY=0.5;entryDx=0;entryDy=0;fontSize=12;startSize=8;endSize=8;" edge="1" parent="1" source="siIuDwFw6AE9mvkU0UEv-14" target="siIuDwFw6AE9mvkU0UEv-26">
          <mxGeometry relative="1" as="geometry" />
        </mxCell>
        <mxCell id="siIuDwFw6AE9mvkU0UEv-14" value="Klik menu campaign" style="rounded=1;whiteSpace=wrap;html=1;" vertex="1" parent="1">
          <mxGeometry x="391" y="320" width="186" height="60" as="geometry" />
        </mxCell>
        <mxCell id="siIuDwFw6AE9mvkU0UEv-15" style="edgeStyle=none;curved=1;rounded=0;orthogonalLoop=1;jettySize=auto;html=1;entryX=0;entryY=0.5;entryDx=0;entryDy=0;fontSize=12;startSize=8;endSize=8;" edge="1" parent="1" source="siIuDwFw6AE9mvkU0UEv-16" target="siIuDwFw6AE9mvkU0UEv-18">
          <mxGeometry relative="1" as="geometry" />
        </mxCell>
        <mxCell id="siIuDwFw6AE9mvkU0UEv-16" value="Klik edit campaign" style="rounded=1;whiteSpace=wrap;html=1;" vertex="1" parent="1">
          <mxGeometry x="391" y="405" width="186" height="60" as="geometry" />
        </mxCell>
        <mxCell id="siIuDwFw6AE9mvkU0UEv-17" style="edgeStyle=none;curved=1;rounded=0;orthogonalLoop=1;jettySize=auto;html=1;entryX=0.5;entryY=0;entryDx=0;entryDy=0;fontSize=12;startSize=8;endSize=8;" edge="1" parent="1" source="siIuDwFw6AE9mvkU0UEv-18" target="siIuDwFw6AE9mvkU0UEv-28">
          <mxGeometry relative="1" as="geometry" />
        </mxCell>
        <mxCell id="siIuDwFw6AE9mvkU0UEv-18" value="Menampilkan form campaign yang ingin di edit" style="rounded=1;whiteSpace=wrap;html=1;" vertex="1" parent="1">
          <mxGeometry x="697" y="405" width="186" height="60" as="geometry" />
        </mxCell>
        <mxCell id="siIuDwFw6AE9mvkU0UEv-19" value="" style="ellipse;whiteSpace=wrap;html=1;aspect=fixed;fillColor=#000000;" vertex="1" parent="1">
          <mxGeometry x="474.5" y="667.5" width="19" height="19" as="geometry" />
        </mxCell>
        <mxCell id="siIuDwFw6AE9mvkU0UEv-20" value="Start" style="text;html=1;align=center;verticalAlign=middle;whiteSpace=wrap;rounded=0;fontSize=16;" vertex="1" parent="1">
          <mxGeometry x="497" y="101" width="60" height="30" as="geometry" />
        </mxCell>
        <mxCell id="siIuDwFw6AE9mvkU0UEv-21" value="Finish" style="text;html=1;align=center;verticalAlign=middle;whiteSpace=wrap;rounded=0;fontSize=16;" vertex="1" parent="1">
          <mxGeometry x="490" y="662" width="60" height="30" as="geometry" />
        </mxCell>
        <mxCell id="siIuDwFw6AE9mvkU0UEv-22" style="edgeStyle=none;curved=1;rounded=0;orthogonalLoop=1;jettySize=auto;html=1;entryX=1;entryY=0.5;entryDx=0;entryDy=0;fontSize=12;startSize=8;endSize=8;" edge="1" parent="1" source="siIuDwFw6AE9mvkU0UEv-24" target="siIuDwFw6AE9mvkU0UEv-10">
          <mxGeometry relative="1" as="geometry">
            <Array as="points">
              <mxPoint x="925" y="166" />
              <mxPoint x="930" y="263" />
            </Array>
          </mxGeometry>
        </mxCell>
        <mxCell id="siIuDwFw6AE9mvkU0UEv-23" style="edgeStyle=none;curved=1;rounded=0;orthogonalLoop=1;jettySize=auto;html=1;entryX=1;entryY=0.5;entryDx=0;entryDy=0;fontSize=12;startSize=8;endSize=8;exitX=0.5;exitY=1;exitDx=0;exitDy=0;" edge="1" parent="1" source="siIuDwFw6AE9mvkU0UEv-24" target="siIuDwFw6AE9mvkU0UEv-12">
          <mxGeometry relative="1" as="geometry">
            <Array as="points">
              <mxPoint x="788" y="220" />
              <mxPoint x="611" y="209" />
              <mxPoint x="620" y="269" />
            </Array>
          </mxGeometry>
        </mxCell>
        <mxCell id="siIuDwFw6AE9mvkU0UEv-24" value="" style="rhombus;whiteSpace=wrap;html=1;" vertex="1" parent="1">
          <mxGeometry x="767" y="158" width="46" height="40" as="geometry" />
        </mxCell>
        <mxCell id="siIuDwFw6AE9mvkU0UEv-25" style="edgeStyle=none;curved=1;rounded=0;orthogonalLoop=1;jettySize=auto;html=1;entryX=0.5;entryY=0;entryDx=0;entryDy=0;fontSize=12;startSize=8;endSize=8;" edge="1" parent="1" source="siIuDwFw6AE9mvkU0UEv-26" target="siIuDwFw6AE9mvkU0UEv-16">
          <mxGeometry relative="1" as="geometry" />
        </mxCell>
        <mxCell id="siIuDwFw6AE9mvkU0UEv-26" value="Menampilkan menu campaign" style="rounded=1;whiteSpace=wrap;html=1;" vertex="1" parent="1">
          <mxGeometry x="697" y="320" width="186" height="60" as="geometry" />
        </mxCell>
        <mxCell id="siIuDwFw6AE9mvkU0UEv-27" style="edgeStyle=none;curved=1;rounded=0;orthogonalLoop=1;jettySize=auto;html=1;entryX=0;entryY=0.5;entryDx=0;entryDy=0;fontSize=12;startSize=8;endSize=8;" edge="1" parent="1" source="siIuDwFw6AE9mvkU0UEv-28" target="siIuDwFw6AE9mvkU0UEv-32">
          <mxGeometry relative="1" as="geometry" />
        </mxCell>
        <mxCell id="siIuDwFw6AE9mvkU0UEv-28" value="Edit lalu simpan" style="rounded=1;whiteSpace=wrap;html=1;" vertex="1" parent="1">
          <mxGeometry x="391" y="491" width="186" height="60" as="geometry" />
        </mxCell>
        <mxCell id="siIuDwFw6AE9mvkU0UEv-29" style="edgeStyle=none;curved=1;rounded=0;orthogonalLoop=1;jettySize=auto;html=1;entryX=0.5;entryY=0;entryDx=0;entryDy=0;fontSize=12;startSize=8;endSize=8;" edge="1" parent="1" source="siIuDwFw6AE9mvkU0UEv-30" target="siIuDwFw6AE9mvkU0UEv-19">
          <mxGeometry relative="1" as="geometry" />
        </mxCell>
        <mxCell id="siIuDwFw6AE9mvkU0UEv-30" value="Logout" style="rounded=1;whiteSpace=wrap;html=1;" vertex="1" parent="1">
          <mxGeometry x="391" y="576" width="186" height="60" as="geometry" />
        </mxCell>
        <mxCell id="siIuDwFw6AE9mvkU0UEv-31" style="edgeStyle=none;curved=1;rounded=0;orthogonalLoop=1;jettySize=auto;html=1;entryX=1;entryY=0.5;entryDx=0;entryDy=0;fontSize=12;startSize=8;endSize=8;" edge="1" parent="1" source="siIuDwFw6AE9mvkU0UEv-32" target="siIuDwFw6AE9mvkU0UEv-30">
          <mxGeometry relative="1" as="geometry" />
        </mxCell>
        <mxCell id="siIuDwFw6AE9mvkU0UEv-32" value="Kembali ke tampilan campaign" style="rounded=1;whiteSpace=wrap;html=1;" vertex="1" parent="1">
          <mxGeometry x="697" y="491" width="186" height="60" as="geometry" />
        </mxCell>
        <mxCell id="siIuDwFw6AE9mvkU0UEv-33" value="ya" style="text;html=1;align=center;verticalAlign=middle;whiteSpace=wrap;rounded=0;fontSize=16;" vertex="1" parent="1">
          <mxGeometry x="810" y="138" width="60" height="30" as="geometry" />
        </mxCell>
        <mxCell id="siIuDwFw6AE9mvkU0UEv-34" value="tidak" style="text;html=1;align=center;verticalAlign=middle;whiteSpace=wrap;rounded=0;fontSize=16;" vertex="1" parent="1">
          <mxGeometry x="788" y="189" width="60" height="30" as="geometry" />
        </mxCell>
      </root>
    </mxGraphModel>
  </diagram>
  <diagram id="0Y-8oywlfgiQxnH8Wtiu" name="Halaman-6">
    <mxGraphModel dx="2200" dy="1210" grid="0" gridSize="10" guides="1" tooltips="1" connect="1" arrows="1" fold="1" page="0" pageScale="1" pageWidth="827" pageHeight="1169" math="0" shadow="0">
      <root>
        <mxCell id="0" />
        <mxCell id="1" parent="0" />
        <mxCell id="qH_O4SJ0BnOWpZ92dsP1-1" value="Admin" style="rounded=0;whiteSpace=wrap;html=1;" vertex="1" parent="1">
          <mxGeometry x="341" y="34" width="306" height="60" as="geometry" />
        </mxCell>
        <mxCell id="qH_O4SJ0BnOWpZ92dsP1-2" value="Sistem" style="rounded=0;whiteSpace=wrap;html=1;" vertex="1" parent="1">
          <mxGeometry x="647" y="34" width="306" height="60" as="geometry" />
        </mxCell>
        <mxCell id="qH_O4SJ0BnOWpZ92dsP1-3" value="" style="rounded=0;whiteSpace=wrap;html=1;" vertex="1" parent="1">
          <mxGeometry x="341" y="94" width="306" height="582" as="geometry" />
        </mxCell>
        <mxCell id="qH_O4SJ0BnOWpZ92dsP1-4" value="" style="rounded=0;whiteSpace=wrap;html=1;" vertex="1" parent="1">
          <mxGeometry x="647" y="94" width="306" height="582" as="geometry" />
        </mxCell>
        <mxCell id="qH_O4SJ0BnOWpZ92dsP1-5" style="edgeStyle=none;curved=1;rounded=0;orthogonalLoop=1;jettySize=auto;html=1;entryX=0;entryY=0.5;entryDx=0;entryDy=0;fontSize=12;startSize=8;endSize=8;" edge="1" parent="1" source="qH_O4SJ0BnOWpZ92dsP1-6" target="qH_O4SJ0BnOWpZ92dsP1-24">
          <mxGeometry relative="1" as="geometry" />
        </mxCell>
        <mxCell id="qH_O4SJ0BnOWpZ92dsP1-6" value="Melakukan login" style="rounded=1;whiteSpace=wrap;html=1;" vertex="1" parent="1">
          <mxGeometry x="401" y="158" width="186" height="60" as="geometry" />
        </mxCell>
        <mxCell id="qH_O4SJ0BnOWpZ92dsP1-7" style="edgeStyle=none;curved=1;rounded=0;orthogonalLoop=1;jettySize=auto;html=1;fontSize=12;startSize=8;endSize=8;" edge="1" parent="1" source="qH_O4SJ0BnOWpZ92dsP1-8" target="qH_O4SJ0BnOWpZ92dsP1-6">
          <mxGeometry relative="1" as="geometry" />
        </mxCell>
        <mxCell id="qH_O4SJ0BnOWpZ92dsP1-8" value="" style="ellipse;whiteSpace=wrap;html=1;aspect=fixed;fillColor=#000000;" vertex="1" parent="1">
          <mxGeometry x="484.5" y="114" width="19" height="19" as="geometry" />
        </mxCell>
        <mxCell id="qH_O4SJ0BnOWpZ92dsP1-9" style="edgeStyle=none;curved=1;rounded=0;orthogonalLoop=1;jettySize=auto;html=1;entryX=0.5;entryY=0;entryDx=0;entryDy=0;fontSize=12;startSize=8;endSize=8;" edge="1" parent="1" source="qH_O4SJ0BnOWpZ92dsP1-10" target="qH_O4SJ0BnOWpZ92dsP1-14">
          <mxGeometry relative="1" as="geometry" />
        </mxCell>
        <mxCell id="qH_O4SJ0BnOWpZ92dsP1-10" value="Menampilkan menu utama" style="rounded=1;whiteSpace=wrap;html=1;" vertex="1" parent="1">
          <mxGeometry x="707" y="288" width="186" height="60" as="geometry" />
        </mxCell>
        <mxCell id="qH_O4SJ0BnOWpZ92dsP1-11" style="edgeStyle=none;curved=1;rounded=0;orthogonalLoop=1;jettySize=auto;html=1;fontSize=12;startSize=8;endSize=8;" edge="1" parent="1" source="qH_O4SJ0BnOWpZ92dsP1-12" target="qH_O4SJ0BnOWpZ92dsP1-6">
          <mxGeometry relative="1" as="geometry" />
        </mxCell>
        <mxCell id="qH_O4SJ0BnOWpZ92dsP1-12" value="Mengisi ulang form login" style="rounded=1;whiteSpace=wrap;html=1;" vertex="1" parent="1">
          <mxGeometry x="401" y="243" width="186" height="60" as="geometry" />
        </mxCell>
        <mxCell id="qH_O4SJ0BnOWpZ92dsP1-13" style="edgeStyle=none;curved=1;rounded=0;orthogonalLoop=1;jettySize=auto;html=1;entryX=0;entryY=0.5;entryDx=0;entryDy=0;fontSize=12;startSize=8;endSize=8;" edge="1" parent="1" source="qH_O4SJ0BnOWpZ92dsP1-14" target="qH_O4SJ0BnOWpZ92dsP1-26">
          <mxGeometry relative="1" as="geometry" />
        </mxCell>
        <mxCell id="qH_O4SJ0BnOWpZ92dsP1-14" value="Klik menu campaign" style="rounded=1;whiteSpace=wrap;html=1;" vertex="1" parent="1">
          <mxGeometry x="401" y="375" width="186" height="60" as="geometry" />
        </mxCell>
        <mxCell id="qH_O4SJ0BnOWpZ92dsP1-15" style="edgeStyle=none;curved=1;rounded=0;orthogonalLoop=1;jettySize=auto;html=1;entryX=0;entryY=0.5;entryDx=0;entryDy=0;fontSize=12;startSize=8;endSize=8;" edge="1" parent="1" source="qH_O4SJ0BnOWpZ92dsP1-16" target="qH_O4SJ0BnOWpZ92dsP1-18">
          <mxGeometry relative="1" as="geometry" />
        </mxCell>
        <mxCell id="qH_O4SJ0BnOWpZ92dsP1-16" value="Klik hapus campaign" style="rounded=1;whiteSpace=wrap;html=1;" vertex="1" parent="1">
          <mxGeometry x="401" y="460" width="186" height="60" as="geometry" />
        </mxCell>
        <mxCell id="qH_O4SJ0BnOWpZ92dsP1-17" style="edgeStyle=none;curved=1;rounded=0;orthogonalLoop=1;jettySize=auto;html=1;entryX=0.5;entryY=0;entryDx=0;entryDy=0;fontSize=12;startSize=8;endSize=8;" edge="1" parent="1" source="qH_O4SJ0BnOWpZ92dsP1-18" target="qH_O4SJ0BnOWpZ92dsP1-28">
          <mxGeometry relative="1" as="geometry" />
        </mxCell>
        <mxCell id="qH_O4SJ0BnOWpZ92dsP1-18" value="Menghapus campaign yang dipilih" style="rounded=1;whiteSpace=wrap;html=1;" vertex="1" parent="1">
          <mxGeometry x="707" y="460" width="186" height="60" as="geometry" />
        </mxCell>
        <mxCell id="qH_O4SJ0BnOWpZ92dsP1-19" value="" style="ellipse;whiteSpace=wrap;html=1;aspect=fixed;fillColor=#000000;" vertex="1" parent="1">
          <mxGeometry x="484.5" y="636.5" width="19" height="19" as="geometry" />
        </mxCell>
        <mxCell id="qH_O4SJ0BnOWpZ92dsP1-20" value="Start" style="text;html=1;align=center;verticalAlign=middle;whiteSpace=wrap;rounded=0;fontSize=16;" vertex="1" parent="1">
          <mxGeometry x="507" y="111" width="60" height="30" as="geometry" />
        </mxCell>
        <mxCell id="qH_O4SJ0BnOWpZ92dsP1-21" value="Finish" style="text;html=1;align=center;verticalAlign=middle;whiteSpace=wrap;rounded=0;fontSize=16;" vertex="1" parent="1">
          <mxGeometry x="500" y="631" width="60" height="30" as="geometry" />
        </mxCell>
        <mxCell id="qH_O4SJ0BnOWpZ92dsP1-22" style="edgeStyle=none;curved=1;rounded=0;orthogonalLoop=1;jettySize=auto;html=1;entryX=1;entryY=0.5;entryDx=0;entryDy=0;fontSize=12;startSize=8;endSize=8;" edge="1" parent="1" source="qH_O4SJ0BnOWpZ92dsP1-24" target="qH_O4SJ0BnOWpZ92dsP1-10">
          <mxGeometry relative="1" as="geometry">
            <Array as="points">
              <mxPoint x="935" y="176" />
              <mxPoint x="940" y="273" />
            </Array>
          </mxGeometry>
        </mxCell>
        <mxCell id="qH_O4SJ0BnOWpZ92dsP1-23" style="edgeStyle=none;curved=1;rounded=0;orthogonalLoop=1;jettySize=auto;html=1;entryX=1;entryY=0.5;entryDx=0;entryDy=0;fontSize=12;startSize=8;endSize=8;exitX=0.5;exitY=1;exitDx=0;exitDy=0;" edge="1" parent="1" source="qH_O4SJ0BnOWpZ92dsP1-24" target="qH_O4SJ0BnOWpZ92dsP1-12">
          <mxGeometry relative="1" as="geometry">
            <Array as="points">
              <mxPoint x="800" y="280" />
            </Array>
          </mxGeometry>
        </mxCell>
        <mxCell id="qH_O4SJ0BnOWpZ92dsP1-24" value="" style="rhombus;whiteSpace=wrap;html=1;" vertex="1" parent="1">
          <mxGeometry x="777" y="168" width="46" height="40" as="geometry" />
        </mxCell>
        <mxCell id="qH_O4SJ0BnOWpZ92dsP1-25" style="edgeStyle=none;curved=1;rounded=0;orthogonalLoop=1;jettySize=auto;html=1;entryX=0.5;entryY=0;entryDx=0;entryDy=0;fontSize=12;startSize=8;endSize=8;" edge="1" parent="1" source="qH_O4SJ0BnOWpZ92dsP1-26" target="qH_O4SJ0BnOWpZ92dsP1-16">
          <mxGeometry relative="1" as="geometry" />
        </mxCell>
        <mxCell id="qH_O4SJ0BnOWpZ92dsP1-26" value="Menampilkan menu campaign" style="rounded=1;whiteSpace=wrap;html=1;" vertex="1" parent="1">
          <mxGeometry x="707" y="375" width="186" height="60" as="geometry" />
        </mxCell>
        <mxCell id="qH_O4SJ0BnOWpZ92dsP1-27" style="edgeStyle=none;curved=1;rounded=0;orthogonalLoop=1;jettySize=auto;html=1;entryX=0.5;entryY=0;entryDx=0;entryDy=0;fontSize=12;startSize=8;endSize=8;" edge="1" parent="1" source="qH_O4SJ0BnOWpZ92dsP1-28" target="qH_O4SJ0BnOWpZ92dsP1-19">
          <mxGeometry relative="1" as="geometry" />
        </mxCell>
        <mxCell id="qH_O4SJ0BnOWpZ92dsP1-28" value="Logout" style="rounded=1;whiteSpace=wrap;html=1;" vertex="1" parent="1">
          <mxGeometry x="401" y="545" width="186" height="60" as="geometry" />
        </mxCell>
        <mxCell id="qH_O4SJ0BnOWpZ92dsP1-29" value="ya" style="text;html=1;align=center;verticalAlign=middle;whiteSpace=wrap;rounded=0;fontSize=16;" vertex="1" parent="1">
          <mxGeometry x="820" y="148" width="60" height="30" as="geometry" />
        </mxCell>
        <mxCell id="qH_O4SJ0BnOWpZ92dsP1-30" value="tidak" style="text;html=1;align=center;verticalAlign=middle;whiteSpace=wrap;rounded=0;fontSize=16;" vertex="1" parent="1">
          <mxGeometry x="798" y="199" width="60" height="30" as="geometry" />
        </mxCell>
      </root>
    </mxGraphModel>
  </diagram>
  <diagram id="otcqeTdWTMFLyQH53ROI" name="Halaman-7">
    <mxGraphModel dx="880" dy="484" grid="0" gridSize="10" guides="1" tooltips="1" connect="1" arrows="1" fold="1" page="0" pageScale="1" pageWidth="827" pageHeight="1169" math="0" shadow="0">
      <root>
        <mxCell id="0" />
        <mxCell id="1" parent="0" />
        <mxCell id="KobnPX-1a7EhBdkSHGRC-1" value="Admin" style="rounded=0;whiteSpace=wrap;html=1;" vertex="1" parent="1">
          <mxGeometry x="341" y="34" width="306" height="60" as="geometry" />
        </mxCell>
        <mxCell id="KobnPX-1a7EhBdkSHGRC-2" value="Sistem" style="rounded=0;whiteSpace=wrap;html=1;" vertex="1" parent="1">
          <mxGeometry x="647" y="34" width="306" height="60" as="geometry" />
        </mxCell>
        <mxCell id="KobnPX-1a7EhBdkSHGRC-3" value="" style="rounded=0;whiteSpace=wrap;html=1;" vertex="1" parent="1">
          <mxGeometry x="341" y="94" width="306" height="497" as="geometry" />
        </mxCell>
        <mxCell id="KobnPX-1a7EhBdkSHGRC-4" value="" style="rounded=0;whiteSpace=wrap;html=1;" vertex="1" parent="1">
          <mxGeometry x="647" y="94" width="306" height="497" as="geometry" />
        </mxCell>
        <mxCell id="KobnPX-1a7EhBdkSHGRC-5" style="edgeStyle=none;curved=1;rounded=0;orthogonalLoop=1;jettySize=auto;html=1;entryX=0;entryY=0.5;entryDx=0;entryDy=0;fontSize=12;startSize=8;endSize=8;" edge="1" parent="1" source="KobnPX-1a7EhBdkSHGRC-6" target="KobnPX-1a7EhBdkSHGRC-20">
          <mxGeometry relative="1" as="geometry" />
        </mxCell>
        <mxCell id="KobnPX-1a7EhBdkSHGRC-6" value="Melakukan login" style="rounded=1;whiteSpace=wrap;html=1;" vertex="1" parent="1">
          <mxGeometry x="401" y="158" width="186" height="60" as="geometry" />
        </mxCell>
        <mxCell id="KobnPX-1a7EhBdkSHGRC-7" style="edgeStyle=none;curved=1;rounded=0;orthogonalLoop=1;jettySize=auto;html=1;fontSize=12;startSize=8;endSize=8;" edge="1" parent="1" source="KobnPX-1a7EhBdkSHGRC-8" target="KobnPX-1a7EhBdkSHGRC-6">
          <mxGeometry relative="1" as="geometry" />
        </mxCell>
        <mxCell id="KobnPX-1a7EhBdkSHGRC-8" value="" style="ellipse;whiteSpace=wrap;html=1;aspect=fixed;fillColor=#000000;" vertex="1" parent="1">
          <mxGeometry x="484.5" y="114" width="19" height="19" as="geometry" />
        </mxCell>
        <mxCell id="KobnPX-1a7EhBdkSHGRC-9" style="edgeStyle=none;curved=1;rounded=0;orthogonalLoop=1;jettySize=auto;html=1;entryX=0.5;entryY=0;entryDx=0;entryDy=0;fontSize=12;startSize=8;endSize=8;" edge="1" parent="1" source="KobnPX-1a7EhBdkSHGRC-10" target="KobnPX-1a7EhBdkSHGRC-14">
          <mxGeometry relative="1" as="geometry" />
        </mxCell>
        <mxCell id="KobnPX-1a7EhBdkSHGRC-10" value="Menampilkan menu utama" style="rounded=1;whiteSpace=wrap;html=1;" vertex="1" parent="1">
          <mxGeometry x="707" y="288" width="186" height="60" as="geometry" />
        </mxCell>
        <mxCell id="KobnPX-1a7EhBdkSHGRC-11" style="edgeStyle=none;curved=1;rounded=0;orthogonalLoop=1;jettySize=auto;html=1;fontSize=12;startSize=8;endSize=8;" edge="1" parent="1" source="KobnPX-1a7EhBdkSHGRC-12" target="KobnPX-1a7EhBdkSHGRC-6">
          <mxGeometry relative="1" as="geometry" />
        </mxCell>
        <mxCell id="KobnPX-1a7EhBdkSHGRC-12" value="Mengisi ulang form login" style="rounded=1;whiteSpace=wrap;html=1;" vertex="1" parent="1">
          <mxGeometry x="401" y="243" width="186" height="60" as="geometry" />
        </mxCell>
        <mxCell id="KobnPX-1a7EhBdkSHGRC-13" style="edgeStyle=none;curved=1;rounded=0;orthogonalLoop=1;jettySize=auto;html=1;entryX=0;entryY=0.5;entryDx=0;entryDy=0;fontSize=12;startSize=8;endSize=8;" edge="1" parent="1" source="KobnPX-1a7EhBdkSHGRC-14" target="KobnPX-1a7EhBdkSHGRC-22">
          <mxGeometry relative="1" as="geometry" />
        </mxCell>
        <mxCell id="KobnPX-1a7EhBdkSHGRC-14" value="Klik data donatur" style="rounded=1;whiteSpace=wrap;html=1;" vertex="1" parent="1">
          <mxGeometry x="401" y="375" width="186" height="60" as="geometry" />
        </mxCell>
        <mxCell id="KobnPX-1a7EhBdkSHGRC-15" style="edgeStyle=none;curved=1;rounded=0;orthogonalLoop=1;jettySize=auto;html=1;entryX=0.5;entryY=0;entryDx=0;entryDy=0;fontSize=12;startSize=8;endSize=8;" edge="1" parent="1" source="KobnPX-1a7EhBdkSHGRC-16" target="KobnPX-1a7EhBdkSHGRC-25">
          <mxGeometry relative="1" as="geometry" />
        </mxCell>
        <mxCell id="KobnPX-1a7EhBdkSHGRC-16" value="Mencetak data donatur" style="rounded=1;whiteSpace=wrap;html=1;" vertex="1" parent="1">
          <mxGeometry x="707" y="460" width="186" height="60" as="geometry" />
        </mxCell>
        <mxCell id="KobnPX-1a7EhBdkSHGRC-17" value="Start" style="text;html=1;align=center;verticalAlign=middle;whiteSpace=wrap;rounded=0;fontSize=16;" vertex="1" parent="1">
          <mxGeometry x="507" y="111" width="60" height="30" as="geometry" />
        </mxCell>
        <mxCell id="KobnPX-1a7EhBdkSHGRC-18" style="edgeStyle=none;curved=1;rounded=0;orthogonalLoop=1;jettySize=auto;html=1;entryX=1;entryY=0.5;entryDx=0;entryDy=0;fontSize=12;startSize=8;endSize=8;" edge="1" parent="1" source="KobnPX-1a7EhBdkSHGRC-20" target="KobnPX-1a7EhBdkSHGRC-10">
          <mxGeometry relative="1" as="geometry">
            <Array as="points">
              <mxPoint x="935" y="176" />
              <mxPoint x="940" y="273" />
            </Array>
          </mxGeometry>
        </mxCell>
        <mxCell id="KobnPX-1a7EhBdkSHGRC-19" style="edgeStyle=none;curved=1;rounded=0;orthogonalLoop=1;jettySize=auto;html=1;entryX=1;entryY=0.5;entryDx=0;entryDy=0;fontSize=12;startSize=8;endSize=8;exitX=0.5;exitY=1;exitDx=0;exitDy=0;" edge="1" parent="1" source="KobnPX-1a7EhBdkSHGRC-20" target="KobnPX-1a7EhBdkSHGRC-12">
          <mxGeometry relative="1" as="geometry">
            <Array as="points">
              <mxPoint x="800" y="280" />
            </Array>
          </mxGeometry>
        </mxCell>
        <mxCell id="KobnPX-1a7EhBdkSHGRC-20" value="" style="rhombus;whiteSpace=wrap;html=1;" vertex="1" parent="1">
          <mxGeometry x="777" y="168" width="46" height="40" as="geometry" />
        </mxCell>
        <mxCell id="KobnPX-1a7EhBdkSHGRC-21" style="edgeStyle=none;curved=1;rounded=0;orthogonalLoop=1;jettySize=auto;html=1;fontSize=12;startSize=8;endSize=8;" edge="1" parent="1" source="KobnPX-1a7EhBdkSHGRC-22" target="KobnPX-1a7EhBdkSHGRC-16">
          <mxGeometry relative="1" as="geometry" />
        </mxCell>
        <mxCell id="KobnPX-1a7EhBdkSHGRC-22" value="Menampilkan data donatur" style="rounded=1;whiteSpace=wrap;html=1;" vertex="1" parent="1">
          <mxGeometry x="707" y="375" width="186" height="60" as="geometry" />
        </mxCell>
        <mxCell id="KobnPX-1a7EhBdkSHGRC-23" value="ya" style="text;html=1;align=center;verticalAlign=middle;whiteSpace=wrap;rounded=0;fontSize=16;" vertex="1" parent="1">
          <mxGeometry x="820" y="148" width="60" height="30" as="geometry" />
        </mxCell>
        <mxCell id="KobnPX-1a7EhBdkSHGRC-24" value="tidak" style="text;html=1;align=center;verticalAlign=middle;whiteSpace=wrap;rounded=0;fontSize=16;" vertex="1" parent="1">
          <mxGeometry x="798" y="199" width="60" height="30" as="geometry" />
        </mxCell>
        <mxCell id="KobnPX-1a7EhBdkSHGRC-25" value="" style="ellipse;whiteSpace=wrap;html=1;aspect=fixed;fillColor=#000000;" vertex="1" parent="1">
          <mxGeometry x="790.25" y="550.5" width="19" height="19" as="geometry" />
        </mxCell>
        <mxCell id="KobnPX-1a7EhBdkSHGRC-26" value="Finish" style="text;html=1;align=center;verticalAlign=middle;whiteSpace=wrap;rounded=0;fontSize=16;" vertex="1" parent="1">
          <mxGeometry x="805.75" y="545" width="60" height="30" as="geometry" />
        </mxCell>
      </root>
    </mxGraphModel>
  </diagram>
  <diagram id="UYZCiLClc0C3UYph2JsB" name="Halaman-8">
    <mxGraphModel dx="880" dy="484" grid="0" gridSize="10" guides="1" tooltips="1" connect="1" arrows="1" fold="1" page="0" pageScale="1" pageWidth="827" pageHeight="1169" math="0" shadow="0">
      <root>
        <mxCell id="0" />
        <mxCell id="1" parent="0" />
        <mxCell id="i9WqMx-UvYmu2Hry8R80-1" value="Donatur" style="rounded=0;whiteSpace=wrap;html=1;" vertex="1" parent="1">
          <mxGeometry x="341" y="34" width="306" height="60" as="geometry" />
        </mxCell>
        <mxCell id="i9WqMx-UvYmu2Hry8R80-2" value="Sistem" style="rounded=0;whiteSpace=wrap;html=1;" vertex="1" parent="1">
          <mxGeometry x="647" y="34" width="306" height="60" as="geometry" />
        </mxCell>
        <mxCell id="i9WqMx-UvYmu2Hry8R80-3" value="" style="rounded=0;whiteSpace=wrap;html=1;" vertex="1" parent="1">
          <mxGeometry x="341" y="94" width="306" height="550" as="geometry" />
        </mxCell>
        <mxCell id="i9WqMx-UvYmu2Hry8R80-4" value="" style="rounded=0;whiteSpace=wrap;html=1;" vertex="1" parent="1">
          <mxGeometry x="647" y="94" width="306" height="550" as="geometry" />
        </mxCell>
        <mxCell id="i9WqMx-UvYmu2Hry8R80-5" style="edgeStyle=none;curved=1;rounded=0;orthogonalLoop=1;jettySize=auto;html=1;entryX=0;entryY=0.5;entryDx=0;entryDy=0;fontSize=12;startSize=8;endSize=8;" edge="1" parent="1" source="i9WqMx-UvYmu2Hry8R80-6" target="i9WqMx-UvYmu2Hry8R80-14">
          <mxGeometry relative="1" as="geometry" />
        </mxCell>
        <mxCell id="i9WqMx-UvYmu2Hry8R80-6" value="Mengisi form" style="rounded=1;whiteSpace=wrap;html=1;" vertex="1" parent="1">
          <mxGeometry x="401" y="334" width="186" height="60" as="geometry" />
        </mxCell>
        <mxCell id="i9WqMx-UvYmu2Hry8R80-7" style="edgeStyle=none;curved=1;rounded=0;orthogonalLoop=1;jettySize=auto;html=1;entryX=0.5;entryY=0;entryDx=0;entryDy=0;fontSize=12;startSize=8;endSize=8;" edge="1" parent="1" source="i9WqMx-UvYmu2Hry8R80-8" target="i9WqMx-UvYmu2Hry8R80-22">
          <mxGeometry relative="1" as="geometry" />
        </mxCell>
        <mxCell id="i9WqMx-UvYmu2Hry8R80-8" value="" style="ellipse;whiteSpace=wrap;html=1;aspect=fixed;fillColor=#000000;" vertex="1" parent="1">
          <mxGeometry x="484.5" y="114" width="19" height="19" as="geometry" />
        </mxCell>
        <mxCell id="i9WqMx-UvYmu2Hry8R80-9" style="edgeStyle=none;curved=1;rounded=0;orthogonalLoop=1;jettySize=auto;html=1;entryX=0.5;entryY=1;entryDx=0;entryDy=0;fontSize=12;startSize=8;endSize=8;exitX=0;exitY=0.5;exitDx=0;exitDy=0;" edge="1" parent="1" source="i9WqMx-UvYmu2Hry8R80-10" target="i9WqMx-UvYmu2Hry8R80-6">
          <mxGeometry relative="1" as="geometry">
            <Array as="points">
              <mxPoint x="490" y="478" />
            </Array>
          </mxGeometry>
        </mxCell>
        <mxCell id="i9WqMx-UvYmu2Hry8R80-10" value="Menampilkan ulang form login" style="rounded=1;whiteSpace=wrap;html=1;" vertex="1" parent="1">
          <mxGeometry x="707" y="425" width="186" height="60" as="geometry" />
        </mxCell>
        <mxCell id="i9WqMx-UvYmu2Hry8R80-11" value="Start" style="text;html=1;align=center;verticalAlign=middle;whiteSpace=wrap;rounded=0;fontSize=16;" vertex="1" parent="1">
          <mxGeometry x="507" y="111" width="60" height="30" as="geometry" />
        </mxCell>
        <mxCell id="i9WqMx-UvYmu2Hry8R80-12" style="edgeStyle=none;curved=1;rounded=0;orthogonalLoop=1;jettySize=auto;html=1;fontSize=12;startSize=8;endSize=8;" edge="1" parent="1" source="i9WqMx-UvYmu2Hry8R80-14" target="i9WqMx-UvYmu2Hry8R80-10">
          <mxGeometry relative="1" as="geometry" />
        </mxCell>
        <mxCell id="i9WqMx-UvYmu2Hry8R80-13" style="edgeStyle=none;curved=1;rounded=0;orthogonalLoop=1;jettySize=auto;html=1;entryX=1;entryY=0.5;entryDx=0;entryDy=0;fontSize=12;startSize=8;endSize=8;" edge="1" parent="1" source="i9WqMx-UvYmu2Hry8R80-14" target="i9WqMx-UvYmu2Hry8R80-16">
          <mxGeometry relative="1" as="geometry">
            <Array as="points">
              <mxPoint x="999" y="364" />
            </Array>
          </mxGeometry>
        </mxCell>
        <mxCell id="i9WqMx-UvYmu2Hry8R80-14" value="" style="rhombus;whiteSpace=wrap;html=1;" vertex="1" parent="1">
          <mxGeometry x="777" y="344" width="46" height="40" as="geometry" />
        </mxCell>
        <mxCell id="i9WqMx-UvYmu2Hry8R80-15" style="edgeStyle=none;curved=1;rounded=0;orthogonalLoop=1;jettySize=auto;html=1;fontSize=12;startSize=8;endSize=8;" edge="1" parent="1" source="i9WqMx-UvYmu2Hry8R80-16" target="i9WqMx-UvYmu2Hry8R80-19">
          <mxGeometry relative="1" as="geometry" />
        </mxCell>
        <mxCell id="i9WqMx-UvYmu2Hry8R80-16" value="Menampilkan data donatur" style="rounded=1;whiteSpace=wrap;html=1;" vertex="1" parent="1">
          <mxGeometry x="707" y="505" width="186" height="60" as="geometry" />
        </mxCell>
        <mxCell id="i9WqMx-UvYmu2Hry8R80-17" value="ya" style="text;html=1;align=center;verticalAlign=middle;whiteSpace=wrap;rounded=0;fontSize=16;" vertex="1" parent="1">
          <mxGeometry x="820" y="324" width="60" height="30" as="geometry" />
        </mxCell>
        <mxCell id="i9WqMx-UvYmu2Hry8R80-18" value="tidak" style="text;html=1;align=center;verticalAlign=middle;whiteSpace=wrap;rounded=0;fontSize=16;" vertex="1" parent="1">
          <mxGeometry x="805.75" y="372" width="60" height="30" as="geometry" />
        </mxCell>
        <mxCell id="i9WqMx-UvYmu2Hry8R80-19" value="" style="ellipse;whiteSpace=wrap;html=1;aspect=fixed;fillColor=#000000;" vertex="1" parent="1">
          <mxGeometry x="790.25" y="593.5" width="19" height="19" as="geometry" />
        </mxCell>
        <mxCell id="i9WqMx-UvYmu2Hry8R80-20" value="Finish" style="text;html=1;align=center;verticalAlign=middle;whiteSpace=wrap;rounded=0;fontSize=16;" vertex="1" parent="1">
          <mxGeometry x="805.75" y="588" width="60" height="30" as="geometry" />
        </mxCell>
        <mxCell id="i9WqMx-UvYmu2Hry8R80-21" style="edgeStyle=none;curved=1;rounded=0;orthogonalLoop=1;jettySize=auto;html=1;entryX=0;entryY=0.5;entryDx=0;entryDy=0;fontSize=12;startSize=8;endSize=8;" edge="1" parent="1" source="i9WqMx-UvYmu2Hry8R80-22" target="i9WqMx-UvYmu2Hry8R80-24">
          <mxGeometry relative="1" as="geometry" />
        </mxCell>
        <mxCell id="i9WqMx-UvYmu2Hry8R80-22" value="Memasuki website" style="rounded=1;whiteSpace=wrap;html=1;" vertex="1" parent="1">
          <mxGeometry x="401" y="159" width="186" height="60" as="geometry" />
        </mxCell>
        <mxCell id="i9WqMx-UvYmu2Hry8R80-23" style="edgeStyle=none;curved=1;rounded=0;orthogonalLoop=1;jettySize=auto;html=1;entryX=0.5;entryY=0;entryDx=0;entryDy=0;fontSize=12;startSize=8;endSize=8;exitX=0.5;exitY=1;exitDx=0;exitDy=0;" edge="1" parent="1" source="i9WqMx-UvYmu2Hry8R80-24" target="i9WqMx-UvYmu2Hry8R80-26">
          <mxGeometry relative="1" as="geometry" />
        </mxCell>
        <mxCell id="i9WqMx-UvYmu2Hry8R80-24" value="Menampilkan halaman website" style="rounded=1;whiteSpace=wrap;html=1;" vertex="1" parent="1">
          <mxGeometry x="707" y="159" width="186" height="60" as="geometry" />
        </mxCell>
        <mxCell id="i9WqMx-UvYmu2Hry8R80-25" style="edgeStyle=none;curved=1;rounded=0;orthogonalLoop=1;jettySize=auto;html=1;entryX=0;entryY=0.5;entryDx=0;entryDy=0;fontSize=12;startSize=8;endSize=8;" edge="1" parent="1" source="i9WqMx-UvYmu2Hry8R80-26" target="i9WqMx-UvYmu2Hry8R80-28">
          <mxGeometry relative="1" as="geometry" />
        </mxCell>
        <mxCell id="i9WqMx-UvYmu2Hry8R80-26" value="Sign in" style="rounded=1;whiteSpace=wrap;html=1;" vertex="1" parent="1">
          <mxGeometry x="401" y="247" width="186" height="60" as="geometry" />
        </mxCell>
        <mxCell id="i9WqMx-UvYmu2Hry8R80-27" style="edgeStyle=none;curved=1;rounded=0;orthogonalLoop=1;jettySize=auto;html=1;entryX=0.5;entryY=0;entryDx=0;entryDy=0;fontSize=12;startSize=8;endSize=8;exitX=0.5;exitY=1;exitDx=0;exitDy=0;" edge="1" parent="1" source="i9WqMx-UvYmu2Hry8R80-28" target="i9WqMx-UvYmu2Hry8R80-6">
          <mxGeometry relative="1" as="geometry" />
        </mxCell>
        <mxCell id="i9WqMx-UvYmu2Hry8R80-28" value="Menampilkan halaman sign in" style="rounded=1;whiteSpace=wrap;html=1;" vertex="1" parent="1">
          <mxGeometry x="707" y="247" width="186" height="60" as="geometry" />
        </mxCell>
        <mxCell id="i9WqMx-UvYmu2Hry8R80-29" value="" style="ellipse;whiteSpace=wrap;html=1;aspect=fixed;fillColor=#000000;" vertex="1" parent="1">
          <mxGeometry x="504.5" y="621.5" width="19" height="19" as="geometry" />
        </mxCell>
        <mxCell id="i9WqMx-UvYmu2Hry8R80-30" value="Finish" style="text;html=1;align=center;verticalAlign=middle;whiteSpace=wrap;rounded=0;fontSize=16;" vertex="1" parent="1">
          <mxGeometry x="520" y="616" width="60" height="30" as="geometry" />
        </mxCell>
      </root>
    </mxGraphModel>
  </diagram>
  <diagram id="6hRlAldAOV_Ke5Hykn9A" name="Halaman-9">
    <mxGraphModel dx="880" dy="484" grid="0" gridSize="10" guides="1" tooltips="1" connect="1" arrows="1" fold="1" page="0" pageScale="1" pageWidth="827" pageHeight="1169" math="0" shadow="0">
      <root>
        <mxCell id="0" />
        <mxCell id="1" parent="0" />
        <mxCell id="n21ivyznriNi-hUwIxad-1" value="Donatur" style="rounded=0;whiteSpace=wrap;html=1;" vertex="1" parent="1">
          <mxGeometry x="341" y="34" width="306" height="60" as="geometry" />
        </mxCell>
        <mxCell id="n21ivyznriNi-hUwIxad-2" value="Sistem" style="rounded=0;whiteSpace=wrap;html=1;" vertex="1" parent="1">
          <mxGeometry x="647" y="34" width="306" height="60" as="geometry" />
        </mxCell>
        <mxCell id="n21ivyznriNi-hUwIxad-3" value="" style="rounded=0;whiteSpace=wrap;html=1;" vertex="1" parent="1">
          <mxGeometry x="341" y="94" width="306" height="550" as="geometry" />
        </mxCell>
        <mxCell id="n21ivyznriNi-hUwIxad-4" value="" style="rounded=0;whiteSpace=wrap;html=1;" vertex="1" parent="1">
          <mxGeometry x="647" y="94" width="306" height="550" as="geometry" />
        </mxCell>
        <mxCell id="n21ivyznriNi-hUwIxad-5" style="edgeStyle=none;curved=1;rounded=0;orthogonalLoop=1;jettySize=auto;html=1;entryX=0;entryY=0.5;entryDx=0;entryDy=0;fontSize=12;startSize=8;endSize=8;" edge="1" parent="1" source="n21ivyznriNi-hUwIxad-6" target="n21ivyznriNi-hUwIxad-14">
          <mxGeometry relative="1" as="geometry" />
        </mxCell>
        <mxCell id="n21ivyznriNi-hUwIxad-6" value="Mengisi form" style="rounded=1;whiteSpace=wrap;html=1;" vertex="1" parent="1">
          <mxGeometry x="401" y="334" width="186" height="60" as="geometry" />
        </mxCell>
        <mxCell id="n21ivyznriNi-hUwIxad-7" style="edgeStyle=none;curved=1;rounded=0;orthogonalLoop=1;jettySize=auto;html=1;entryX=0.5;entryY=0;entryDx=0;entryDy=0;fontSize=12;startSize=8;endSize=8;" edge="1" parent="1" source="n21ivyznriNi-hUwIxad-8" target="n21ivyznriNi-hUwIxad-22">
          <mxGeometry relative="1" as="geometry" />
        </mxCell>
        <mxCell id="n21ivyznriNi-hUwIxad-8" value="" style="ellipse;whiteSpace=wrap;html=1;aspect=fixed;fillColor=#000000;" vertex="1" parent="1">
          <mxGeometry x="484.5" y="114" width="19" height="19" as="geometry" />
        </mxCell>
        <mxCell id="n21ivyznriNi-hUwIxad-9" style="edgeStyle=none;curved=1;rounded=0;orthogonalLoop=1;jettySize=auto;html=1;entryX=0.5;entryY=1;entryDx=0;entryDy=0;fontSize=12;startSize=8;endSize=8;exitX=0;exitY=0.5;exitDx=0;exitDy=0;" edge="1" parent="1" source="n21ivyznriNi-hUwIxad-10" target="n21ivyznriNi-hUwIxad-6">
          <mxGeometry relative="1" as="geometry">
            <Array as="points">
              <mxPoint x="490" y="478" />
            </Array>
          </mxGeometry>
        </mxCell>
        <mxCell id="n21ivyznriNi-hUwIxad-10" value="Menampilkan ulang form login" style="rounded=1;whiteSpace=wrap;html=1;" vertex="1" parent="1">
          <mxGeometry x="707" y="425" width="186" height="60" as="geometry" />
        </mxCell>
        <mxCell id="n21ivyznriNi-hUwIxad-11" value="Start" style="text;html=1;align=center;verticalAlign=middle;whiteSpace=wrap;rounded=0;fontSize=16;" vertex="1" parent="1">
          <mxGeometry x="507" y="111" width="60" height="30" as="geometry" />
        </mxCell>
        <mxCell id="n21ivyznriNi-hUwIxad-12" style="edgeStyle=none;curved=1;rounded=0;orthogonalLoop=1;jettySize=auto;html=1;fontSize=12;startSize=8;endSize=8;" edge="1" parent="1" source="n21ivyznriNi-hUwIxad-14" target="n21ivyznriNi-hUwIxad-10">
          <mxGeometry relative="1" as="geometry" />
        </mxCell>
        <mxCell id="n21ivyznriNi-hUwIxad-13" style="edgeStyle=none;curved=1;rounded=0;orthogonalLoop=1;jettySize=auto;html=1;entryX=1;entryY=0.5;entryDx=0;entryDy=0;fontSize=12;startSize=8;endSize=8;" edge="1" parent="1" source="n21ivyznriNi-hUwIxad-14" target="n21ivyznriNi-hUwIxad-16">
          <mxGeometry relative="1" as="geometry">
            <Array as="points">
              <mxPoint x="999" y="364" />
            </Array>
          </mxGeometry>
        </mxCell>
        <mxCell id="n21ivyznriNi-hUwIxad-14" value="" style="rhombus;whiteSpace=wrap;html=1;" vertex="1" parent="1">
          <mxGeometry x="777" y="344" width="46" height="40" as="geometry" />
        </mxCell>
        <mxCell id="n21ivyznriNi-hUwIxad-15" style="edgeStyle=none;curved=1;rounded=0;orthogonalLoop=1;jettySize=auto;html=1;fontSize=12;startSize=8;endSize=8;" edge="1" parent="1" source="n21ivyznriNi-hUwIxad-16" target="n21ivyznriNi-hUwIxad-19">
          <mxGeometry relative="1" as="geometry" />
        </mxCell>
        <mxCell id="n21ivyznriNi-hUwIxad-16" value="Masuk ke menu utama" style="rounded=1;whiteSpace=wrap;html=1;" vertex="1" parent="1">
          <mxGeometry x="707" y="505" width="186" height="60" as="geometry" />
        </mxCell>
        <mxCell id="n21ivyznriNi-hUwIxad-17" value="ya" style="text;html=1;align=center;verticalAlign=middle;whiteSpace=wrap;rounded=0;fontSize=16;" vertex="1" parent="1">
          <mxGeometry x="820" y="324" width="60" height="30" as="geometry" />
        </mxCell>
        <mxCell id="n21ivyznriNi-hUwIxad-18" value="tidak" style="text;html=1;align=center;verticalAlign=middle;whiteSpace=wrap;rounded=0;fontSize=16;" vertex="1" parent="1">
          <mxGeometry x="805.75" y="372" width="60" height="30" as="geometry" />
        </mxCell>
        <mxCell id="n21ivyznriNi-hUwIxad-19" value="" style="ellipse;whiteSpace=wrap;html=1;aspect=fixed;fillColor=#000000;" vertex="1" parent="1">
          <mxGeometry x="790.25" y="593.5" width="19" height="19" as="geometry" />
        </mxCell>
        <mxCell id="n21ivyznriNi-hUwIxad-20" value="Finish" style="text;html=1;align=center;verticalAlign=middle;whiteSpace=wrap;rounded=0;fontSize=16;" vertex="1" parent="1">
          <mxGeometry x="805.75" y="588" width="60" height="30" as="geometry" />
        </mxCell>
        <mxCell id="n21ivyznriNi-hUwIxad-21" style="edgeStyle=none;curved=1;rounded=0;orthogonalLoop=1;jettySize=auto;html=1;entryX=0;entryY=0.5;entryDx=0;entryDy=0;fontSize=12;startSize=8;endSize=8;" edge="1" parent="1" source="n21ivyznriNi-hUwIxad-22" target="n21ivyznriNi-hUwIxad-24">
          <mxGeometry relative="1" as="geometry" />
        </mxCell>
        <mxCell id="n21ivyznriNi-hUwIxad-22" value="Memasuki website" style="rounded=1;whiteSpace=wrap;html=1;" vertex="1" parent="1">
          <mxGeometry x="401" y="159" width="186" height="60" as="geometry" />
        </mxCell>
        <mxCell id="n21ivyznriNi-hUwIxad-23" style="edgeStyle=none;curved=1;rounded=0;orthogonalLoop=1;jettySize=auto;html=1;entryX=0.5;entryY=0;entryDx=0;entryDy=0;fontSize=12;startSize=8;endSize=8;exitX=0.5;exitY=1;exitDx=0;exitDy=0;" edge="1" parent="1" source="n21ivyznriNi-hUwIxad-24" target="n21ivyznriNi-hUwIxad-26">
          <mxGeometry relative="1" as="geometry" />
        </mxCell>
        <mxCell id="n21ivyznriNi-hUwIxad-24" value="Menampilkan halaman website" style="rounded=1;whiteSpace=wrap;html=1;" vertex="1" parent="1">
          <mxGeometry x="707" y="159" width="186" height="60" as="geometry" />
        </mxCell>
        <mxCell id="n21ivyznriNi-hUwIxad-25" style="edgeStyle=none;curved=1;rounded=0;orthogonalLoop=1;jettySize=auto;html=1;entryX=0;entryY=0.5;entryDx=0;entryDy=0;fontSize=12;startSize=8;endSize=8;" edge="1" parent="1" source="n21ivyznriNi-hUwIxad-26" target="n21ivyznriNi-hUwIxad-28">
          <mxGeometry relative="1" as="geometry" />
        </mxCell>
        <mxCell id="n21ivyznriNi-hUwIxad-26" value="Login" style="rounded=1;whiteSpace=wrap;html=1;" vertex="1" parent="1">
          <mxGeometry x="401" y="247" width="186" height="60" as="geometry" />
        </mxCell>
        <mxCell id="n21ivyznriNi-hUwIxad-27" style="edgeStyle=none;curved=1;rounded=0;orthogonalLoop=1;jettySize=auto;html=1;entryX=0.5;entryY=0;entryDx=0;entryDy=0;fontSize=12;startSize=8;endSize=8;exitX=0.5;exitY=1;exitDx=0;exitDy=0;" edge="1" parent="1" source="n21ivyznriNi-hUwIxad-28" target="n21ivyznriNi-hUwIxad-6">
          <mxGeometry relative="1" as="geometry" />
        </mxCell>
        <mxCell id="n21ivyznriNi-hUwIxad-28" value="Menampilkan halaman login" style="rounded=1;whiteSpace=wrap;html=1;" vertex="1" parent="1">
          <mxGeometry x="707" y="247" width="186" height="60" as="geometry" />
        </mxCell>
        <mxCell id="n21ivyznriNi-hUwIxad-29" value="" style="ellipse;whiteSpace=wrap;html=1;aspect=fixed;fillColor=#000000;" vertex="1" parent="1">
          <mxGeometry x="514.5" y="631.5" width="19" height="19" as="geometry" />
        </mxCell>
        <mxCell id="n21ivyznriNi-hUwIxad-30" value="Finish" style="text;html=1;align=center;verticalAlign=middle;whiteSpace=wrap;rounded=0;fontSize=16;" vertex="1" parent="1">
          <mxGeometry x="530" y="626" width="60" height="30" as="geometry" />
        </mxCell>
      </root>
    </mxGraphModel>
  </diagram>
  <diagram id="7ExtUCPOKWQuMIgvfpRW" name="Halaman-10">
    <mxGraphModel dx="880" dy="484" grid="0" gridSize="10" guides="1" tooltips="1" connect="1" arrows="1" fold="1" page="0" pageScale="1" pageWidth="827" pageHeight="1169" math="0" shadow="0">
      <root>
        <mxCell id="0" />
        <mxCell id="1" parent="0" />
        <mxCell id="yXoVcajAn2_jR2g6uFqh-1" value="Donatur" style="rounded=0;whiteSpace=wrap;html=1;" vertex="1" parent="1">
          <mxGeometry x="341" y="34" width="306" height="60" as="geometry" />
        </mxCell>
        <mxCell id="yXoVcajAn2_jR2g6uFqh-2" value="Sistem" style="rounded=0;whiteSpace=wrap;html=1;" vertex="1" parent="1">
          <mxGeometry x="647" y="34" width="306" height="60" as="geometry" />
        </mxCell>
        <mxCell id="yXoVcajAn2_jR2g6uFqh-3" value="" style="rounded=0;whiteSpace=wrap;html=1;" vertex="1" parent="1">
          <mxGeometry x="341" y="94" width="306" height="465" as="geometry" />
        </mxCell>
        <mxCell id="yXoVcajAn2_jR2g6uFqh-4" value="" style="rounded=0;whiteSpace=wrap;html=1;" vertex="1" parent="1">
          <mxGeometry x="647" y="94" width="306" height="465" as="geometry" />
        </mxCell>
        <mxCell id="yXoVcajAn2_jR2g6uFqh-5" style="edgeStyle=none;curved=1;rounded=0;orthogonalLoop=1;jettySize=auto;html=1;entryX=0;entryY=0.5;entryDx=0;entryDy=0;fontSize=12;startSize=8;endSize=8;" edge="1" parent="1" source="yXoVcajAn2_jR2g6uFqh-6" target="yXoVcajAn2_jR2g6uFqh-14">
          <mxGeometry relative="1" as="geometry" />
        </mxCell>
        <mxCell id="yXoVcajAn2_jR2g6uFqh-6" value="Login" style="rounded=1;whiteSpace=wrap;html=1;" vertex="1" parent="1">
          <mxGeometry x="401" y="158" width="186" height="60" as="geometry" />
        </mxCell>
        <mxCell id="yXoVcajAn2_jR2g6uFqh-7" style="edgeStyle=none;curved=1;rounded=0;orthogonalLoop=1;jettySize=auto;html=1;fontSize=12;startSize=8;endSize=8;" edge="1" parent="1" source="yXoVcajAn2_jR2g6uFqh-8" target="yXoVcajAn2_jR2g6uFqh-6">
          <mxGeometry relative="1" as="geometry" />
        </mxCell>
        <mxCell id="yXoVcajAn2_jR2g6uFqh-8" value="" style="ellipse;whiteSpace=wrap;html=1;aspect=fixed;fillColor=#000000;" vertex="1" parent="1">
          <mxGeometry x="484.5" y="114" width="19" height="19" as="geometry" />
        </mxCell>
        <mxCell id="yXoVcajAn2_jR2g6uFqh-9" style="edgeStyle=none;curved=1;rounded=0;orthogonalLoop=1;jettySize=auto;html=1;entryX=0.5;entryY=1;entryDx=0;entryDy=0;fontSize=12;startSize=8;endSize=8;exitX=0;exitY=0.5;exitDx=0;exitDy=0;" edge="1" parent="1" source="yXoVcajAn2_jR2g6uFqh-10" target="yXoVcajAn2_jR2g6uFqh-6">
          <mxGeometry relative="1" as="geometry">
            <Array as="points">
              <mxPoint x="490" y="302" />
            </Array>
          </mxGeometry>
        </mxCell>
        <mxCell id="yXoVcajAn2_jR2g6uFqh-10" value="Menampilkan ulang form login" style="rounded=1;whiteSpace=wrap;html=1;" vertex="1" parent="1">
          <mxGeometry x="707" y="249" width="186" height="60" as="geometry" />
        </mxCell>
        <mxCell id="yXoVcajAn2_jR2g6uFqh-11" value="Start" style="text;html=1;align=center;verticalAlign=middle;whiteSpace=wrap;rounded=0;fontSize=16;" vertex="1" parent="1">
          <mxGeometry x="507" y="111" width="60" height="30" as="geometry" />
        </mxCell>
        <mxCell id="yXoVcajAn2_jR2g6uFqh-12" style="edgeStyle=none;curved=1;rounded=0;orthogonalLoop=1;jettySize=auto;html=1;fontSize=12;startSize=8;endSize=8;" edge="1" parent="1" source="yXoVcajAn2_jR2g6uFqh-14" target="yXoVcajAn2_jR2g6uFqh-10">
          <mxGeometry relative="1" as="geometry" />
        </mxCell>
        <mxCell id="yXoVcajAn2_jR2g6uFqh-13" style="edgeStyle=none;curved=1;rounded=0;orthogonalLoop=1;jettySize=auto;html=1;entryX=1;entryY=0.5;entryDx=0;entryDy=0;fontSize=12;startSize=8;endSize=8;" edge="1" parent="1" source="yXoVcajAn2_jR2g6uFqh-14" target="yXoVcajAn2_jR2g6uFqh-16">
          <mxGeometry relative="1" as="geometry">
            <Array as="points">
              <mxPoint x="999" y="188" />
            </Array>
          </mxGeometry>
        </mxCell>
        <mxCell id="yXoVcajAn2_jR2g6uFqh-14" value="" style="rhombus;whiteSpace=wrap;html=1;" vertex="1" parent="1">
          <mxGeometry x="777" y="168" width="46" height="40" as="geometry" />
        </mxCell>
        <mxCell id="yXoVcajAn2_jR2g6uFqh-15" style="edgeStyle=none;curved=1;rounded=0;orthogonalLoop=1;jettySize=auto;html=1;entryX=1;entryY=0.5;entryDx=0;entryDy=0;fontSize=12;startSize=8;endSize=8;" edge="1" parent="1" source="yXoVcajAn2_jR2g6uFqh-16" target="yXoVcajAn2_jR2g6uFqh-22">
          <mxGeometry relative="1" as="geometry" />
        </mxCell>
        <mxCell id="yXoVcajAn2_jR2g6uFqh-16" value="Menampilkan halaman website" style="rounded=1;whiteSpace=wrap;html=1;" vertex="1" parent="1">
          <mxGeometry x="707" y="329" width="186" height="60" as="geometry" />
        </mxCell>
        <mxCell id="yXoVcajAn2_jR2g6uFqh-17" value="ya" style="text;html=1;align=center;verticalAlign=middle;whiteSpace=wrap;rounded=0;fontSize=16;" vertex="1" parent="1">
          <mxGeometry x="820" y="148" width="60" height="30" as="geometry" />
        </mxCell>
        <mxCell id="yXoVcajAn2_jR2g6uFqh-18" value="tidak" style="text;html=1;align=center;verticalAlign=middle;whiteSpace=wrap;rounded=0;fontSize=16;" vertex="1" parent="1">
          <mxGeometry x="805.75" y="196" width="60" height="30" as="geometry" />
        </mxCell>
        <mxCell id="yXoVcajAn2_jR2g6uFqh-19" value="" style="ellipse;whiteSpace=wrap;html=1;aspect=fixed;fillColor=#000000;" vertex="1" parent="1">
          <mxGeometry x="790.25" y="513.5" width="19" height="19" as="geometry" />
        </mxCell>
        <mxCell id="yXoVcajAn2_jR2g6uFqh-20" value="Finish" style="text;html=1;align=center;verticalAlign=middle;whiteSpace=wrap;rounded=0;fontSize=16;" vertex="1" parent="1">
          <mxGeometry x="805.75" y="508" width="60" height="30" as="geometry" />
        </mxCell>
        <mxCell id="yXoVcajAn2_jR2g6uFqh-21" style="edgeStyle=none;curved=1;rounded=0;orthogonalLoop=1;jettySize=auto;html=1;entryX=0;entryY=0.5;entryDx=0;entryDy=0;fontSize=12;startSize=8;endSize=8;exitX=0.5;exitY=1;exitDx=0;exitDy=0;" edge="1" parent="1" source="yXoVcajAn2_jR2g6uFqh-22" target="yXoVcajAn2_jR2g6uFqh-24">
          <mxGeometry relative="1" as="geometry" />
        </mxCell>
        <mxCell id="yXoVcajAn2_jR2g6uFqh-22" value="Klik donasi" style="rounded=1;whiteSpace=wrap;html=1;" vertex="1" parent="1">
          <mxGeometry x="401" y="331" width="186" height="60" as="geometry" />
        </mxCell>
        <mxCell id="yXoVcajAn2_jR2g6uFqh-23" style="edgeStyle=none;curved=1;rounded=0;orthogonalLoop=1;jettySize=auto;html=1;entryX=0.5;entryY=0;entryDx=0;entryDy=0;fontSize=12;startSize=8;endSize=8;" edge="1" parent="1" source="yXoVcajAn2_jR2g6uFqh-24" target="yXoVcajAn2_jR2g6uFqh-19">
          <mxGeometry relative="1" as="geometry" />
        </mxCell>
        <mxCell id="yXoVcajAn2_jR2g6uFqh-24" value="Menampilkan menu donasi" style="rounded=1;whiteSpace=wrap;html=1;" vertex="1" parent="1">
          <mxGeometry x="707" y="416" width="186" height="60" as="geometry" />
        </mxCell>
      </root>
    </mxGraphModel>
  </diagram>
  <diagram id="ErmoHrSVMUrcQqR8-YSM" name="Halaman-11">
    <mxGraphModel dx="880" dy="484" grid="0" gridSize="10" guides="1" tooltips="1" connect="1" arrows="1" fold="1" page="0" pageScale="1" pageWidth="827" pageHeight="1169" math="0" shadow="0">
      <root>
        <mxCell id="0" />
        <mxCell id="1" parent="0" />
        <mxCell id="fiNdoKRfdau2j704xs9L-1" value="Donatur" style="rounded=0;whiteSpace=wrap;html=1;" vertex="1" parent="1">
          <mxGeometry x="341" y="34" width="306" height="60" as="geometry" />
        </mxCell>
        <mxCell id="fiNdoKRfdau2j704xs9L-2" value="Sistem" style="rounded=0;whiteSpace=wrap;html=1;" vertex="1" parent="1">
          <mxGeometry x="647" y="34" width="306" height="60" as="geometry" />
        </mxCell>
        <mxCell id="fiNdoKRfdau2j704xs9L-3" value="" style="rounded=0;whiteSpace=wrap;html=1;" vertex="1" parent="1">
          <mxGeometry x="341" y="94" width="306" height="531" as="geometry" />
        </mxCell>
        <mxCell id="fiNdoKRfdau2j704xs9L-4" value="" style="rounded=0;whiteSpace=wrap;html=1;" vertex="1" parent="1">
          <mxGeometry x="647" y="94" width="306" height="531" as="geometry" />
        </mxCell>
        <mxCell id="fiNdoKRfdau2j704xs9L-5" style="edgeStyle=none;curved=1;rounded=0;orthogonalLoop=1;jettySize=auto;html=1;entryX=0;entryY=0.5;entryDx=0;entryDy=0;fontSize=12;startSize=8;endSize=8;" edge="1" parent="1" source="fiNdoKRfdau2j704xs9L-6" target="fiNdoKRfdau2j704xs9L-14">
          <mxGeometry relative="1" as="geometry" />
        </mxCell>
        <mxCell id="fiNdoKRfdau2j704xs9L-6" value="Login" style="rounded=1;whiteSpace=wrap;html=1;" vertex="1" parent="1">
          <mxGeometry x="401" y="158" width="186" height="60" as="geometry" />
        </mxCell>
        <mxCell id="fiNdoKRfdau2j704xs9L-7" style="edgeStyle=none;curved=1;rounded=0;orthogonalLoop=1;jettySize=auto;html=1;fontSize=12;startSize=8;endSize=8;" edge="1" parent="1" source="fiNdoKRfdau2j704xs9L-8" target="fiNdoKRfdau2j704xs9L-6">
          <mxGeometry relative="1" as="geometry" />
        </mxCell>
        <mxCell id="fiNdoKRfdau2j704xs9L-8" value="" style="ellipse;whiteSpace=wrap;html=1;aspect=fixed;fillColor=#000000;" vertex="1" parent="1">
          <mxGeometry x="484.5" y="114" width="19" height="19" as="geometry" />
        </mxCell>
        <mxCell id="fiNdoKRfdau2j704xs9L-9" style="edgeStyle=none;curved=1;rounded=0;orthogonalLoop=1;jettySize=auto;html=1;entryX=0.5;entryY=1;entryDx=0;entryDy=0;fontSize=12;startSize=8;endSize=8;exitX=0;exitY=0.5;exitDx=0;exitDy=0;" edge="1" parent="1" source="fiNdoKRfdau2j704xs9L-10" target="fiNdoKRfdau2j704xs9L-6">
          <mxGeometry relative="1" as="geometry">
            <Array as="points">
              <mxPoint x="490" y="302" />
            </Array>
          </mxGeometry>
        </mxCell>
        <mxCell id="fiNdoKRfdau2j704xs9L-10" value="Menampilkan ulang form login" style="rounded=1;whiteSpace=wrap;html=1;" vertex="1" parent="1">
          <mxGeometry x="707" y="249" width="186" height="60" as="geometry" />
        </mxCell>
        <mxCell id="fiNdoKRfdau2j704xs9L-11" value="Start" style="text;html=1;align=center;verticalAlign=middle;whiteSpace=wrap;rounded=0;fontSize=16;" vertex="1" parent="1">
          <mxGeometry x="507" y="111" width="60" height="30" as="geometry" />
        </mxCell>
        <mxCell id="fiNdoKRfdau2j704xs9L-12" style="edgeStyle=none;curved=1;rounded=0;orthogonalLoop=1;jettySize=auto;html=1;fontSize=12;startSize=8;endSize=8;" edge="1" parent="1" source="fiNdoKRfdau2j704xs9L-14" target="fiNdoKRfdau2j704xs9L-10">
          <mxGeometry relative="1" as="geometry" />
        </mxCell>
        <mxCell id="fiNdoKRfdau2j704xs9L-13" style="edgeStyle=none;curved=1;rounded=0;orthogonalLoop=1;jettySize=auto;html=1;entryX=1;entryY=0.5;entryDx=0;entryDy=0;fontSize=12;startSize=8;endSize=8;" edge="1" parent="1" source="fiNdoKRfdau2j704xs9L-14" target="fiNdoKRfdau2j704xs9L-16">
          <mxGeometry relative="1" as="geometry">
            <Array as="points">
              <mxPoint x="999" y="188" />
            </Array>
          </mxGeometry>
        </mxCell>
        <mxCell id="fiNdoKRfdau2j704xs9L-14" value="" style="rhombus;whiteSpace=wrap;html=1;" vertex="1" parent="1">
          <mxGeometry x="777" y="168" width="46" height="40" as="geometry" />
        </mxCell>
        <mxCell id="fiNdoKRfdau2j704xs9L-15" style="edgeStyle=none;curved=1;rounded=0;orthogonalLoop=1;jettySize=auto;html=1;entryX=1;entryY=0.5;entryDx=0;entryDy=0;fontSize=12;startSize=8;endSize=8;" edge="1" parent="1" source="fiNdoKRfdau2j704xs9L-16" target="fiNdoKRfdau2j704xs9L-20">
          <mxGeometry relative="1" as="geometry" />
        </mxCell>
        <mxCell id="fiNdoKRfdau2j704xs9L-16" value="Menampilkan halaman website" style="rounded=1;whiteSpace=wrap;html=1;" vertex="1" parent="1">
          <mxGeometry x="707" y="329" width="186" height="60" as="geometry" />
        </mxCell>
        <mxCell id="fiNdoKRfdau2j704xs9L-17" value="ya" style="text;html=1;align=center;verticalAlign=middle;whiteSpace=wrap;rounded=0;fontSize=16;" vertex="1" parent="1">
          <mxGeometry x="820" y="148" width="60" height="30" as="geometry" />
        </mxCell>
        <mxCell id="fiNdoKRfdau2j704xs9L-18" value="tidak" style="text;html=1;align=center;verticalAlign=middle;whiteSpace=wrap;rounded=0;fontSize=16;" vertex="1" parent="1">
          <mxGeometry x="805.75" y="196" width="60" height="30" as="geometry" />
        </mxCell>
        <mxCell id="fiNdoKRfdau2j704xs9L-19" style="edgeStyle=none;curved=1;rounded=0;orthogonalLoop=1;jettySize=auto;html=1;entryX=0.5;entryY=0;entryDx=0;entryDy=0;fontSize=12;startSize=8;endSize=8;exitX=0.5;exitY=1;exitDx=0;exitDy=0;" edge="1" parent="1" source="fiNdoKRfdau2j704xs9L-20" target="fiNdoKRfdau2j704xs9L-22">
          <mxGeometry relative="1" as="geometry" />
        </mxCell>
        <mxCell id="fiNdoKRfdau2j704xs9L-20" value="Pilih profile" style="rounded=1;whiteSpace=wrap;html=1;" vertex="1" parent="1">
          <mxGeometry x="401" y="331" width="186" height="60" as="geometry" />
        </mxCell>
        <mxCell id="fiNdoKRfdau2j704xs9L-21" style="edgeStyle=none;curved=1;rounded=0;orthogonalLoop=1;jettySize=auto;html=1;entryX=1;entryY=0.5;entryDx=0;entryDy=0;fontSize=12;startSize=8;endSize=8;" edge="1" parent="1" source="fiNdoKRfdau2j704xs9L-22" target="fiNdoKRfdau2j704xs9L-26">
          <mxGeometry relative="1" as="geometry" />
        </mxCell>
        <mxCell id="fiNdoKRfdau2j704xs9L-22" value="Menampilkan halaman profile" style="rounded=1;whiteSpace=wrap;html=1;" vertex="1" parent="1">
          <mxGeometry x="707" y="416" width="186" height="60" as="geometry" />
        </mxCell>
        <mxCell id="fiNdoKRfdau2j704xs9L-23" value="" style="ellipse;whiteSpace=wrap;html=1;aspect=fixed;fillColor=#000000;" vertex="1" parent="1">
          <mxGeometry x="484.5" y="583.5" width="19" height="19" as="geometry" />
        </mxCell>
        <mxCell id="fiNdoKRfdau2j704xs9L-24" value="Finish" style="text;html=1;align=center;verticalAlign=middle;whiteSpace=wrap;rounded=0;fontSize=16;" vertex="1" parent="1">
          <mxGeometry x="500" y="578" width="60" height="30" as="geometry" />
        </mxCell>
        <mxCell id="fiNdoKRfdau2j704xs9L-25" style="edgeStyle=none;curved=1;rounded=0;orthogonalLoop=1;jettySize=auto;html=1;entryX=0.5;entryY=0;entryDx=0;entryDy=0;fontSize=12;startSize=8;endSize=8;" edge="1" parent="1" source="fiNdoKRfdau2j704xs9L-26" target="fiNdoKRfdau2j704xs9L-28">
          <mxGeometry relative="1" as="geometry" />
        </mxCell>
        <mxCell id="fiNdoKRfdau2j704xs9L-26" value="Pilih ganti foto" style="rounded=1;whiteSpace=wrap;html=1;" vertex="1" parent="1">
          <mxGeometry x="401" y="416" width="186" height="60" as="geometry" />
        </mxCell>
        <mxCell id="fiNdoKRfdau2j704xs9L-27" style="edgeStyle=none;curved=1;rounded=0;orthogonalLoop=1;jettySize=auto;html=1;entryX=0.5;entryY=0;entryDx=0;entryDy=0;fontSize=12;startSize=8;endSize=8;" edge="1" parent="1" source="fiNdoKRfdau2j704xs9L-28" target="fiNdoKRfdau2j704xs9L-23">
          <mxGeometry relative="1" as="geometry" />
        </mxCell>
        <mxCell id="fiNdoKRfdau2j704xs9L-28" value="Unggah foto dan simpan" style="rounded=1;whiteSpace=wrap;html=1;" vertex="1" parent="1">
          <mxGeometry x="401" y="499" width="186" height="60" as="geometry" />
        </mxCell>
      </root>
    </mxGraphModel>
  </diagram>
  <diagram id="KsLnK0omaoLaaHE9jY8P" name="Halaman-12">
    <mxGraphModel dx="880" dy="484" grid="0" gridSize="10" guides="1" tooltips="1" connect="1" arrows="1" fold="1" page="0" pageScale="1" pageWidth="827" pageHeight="1169" math="0" shadow="0">
      <root>
        <mxCell id="0" />
        <mxCell id="1" parent="0" />
        <mxCell id="NpOPQq9WhLzo8mYPJbSC-1" value="Donatur" style="rounded=0;whiteSpace=wrap;html=1;" vertex="1" parent="1">
          <mxGeometry x="341" y="34" width="306" height="60" as="geometry" />
        </mxCell>
        <mxCell id="NpOPQq9WhLzo8mYPJbSC-2" value="Sistem" style="rounded=0;whiteSpace=wrap;html=1;" vertex="1" parent="1">
          <mxGeometry x="647" y="34" width="306" height="60" as="geometry" />
        </mxCell>
        <mxCell id="NpOPQq9WhLzo8mYPJbSC-3" value="" style="rounded=0;whiteSpace=wrap;html=1;" vertex="1" parent="1">
          <mxGeometry x="341" y="94" width="306" height="531" as="geometry" />
        </mxCell>
        <mxCell id="NpOPQq9WhLzo8mYPJbSC-4" value="" style="rounded=0;whiteSpace=wrap;html=1;" vertex="1" parent="1">
          <mxGeometry x="647" y="94" width="306" height="531" as="geometry" />
        </mxCell>
        <mxCell id="NpOPQq9WhLzo8mYPJbSC-5" style="edgeStyle=none;curved=1;rounded=0;orthogonalLoop=1;jettySize=auto;html=1;entryX=0;entryY=0.5;entryDx=0;entryDy=0;fontSize=12;startSize=8;endSize=8;" edge="1" parent="1" source="NpOPQq9WhLzo8mYPJbSC-6" target="NpOPQq9WhLzo8mYPJbSC-14">
          <mxGeometry relative="1" as="geometry" />
        </mxCell>
        <mxCell id="NpOPQq9WhLzo8mYPJbSC-6" value="Login" style="rounded=1;whiteSpace=wrap;html=1;" vertex="1" parent="1">
          <mxGeometry x="401" y="158" width="186" height="60" as="geometry" />
        </mxCell>
        <mxCell id="NpOPQq9WhLzo8mYPJbSC-7" style="edgeStyle=none;curved=1;rounded=0;orthogonalLoop=1;jettySize=auto;html=1;fontSize=12;startSize=8;endSize=8;" edge="1" parent="1" source="NpOPQq9WhLzo8mYPJbSC-8" target="NpOPQq9WhLzo8mYPJbSC-6">
          <mxGeometry relative="1" as="geometry" />
        </mxCell>
        <mxCell id="NpOPQq9WhLzo8mYPJbSC-8" value="" style="ellipse;whiteSpace=wrap;html=1;aspect=fixed;fillColor=#000000;" vertex="1" parent="1">
          <mxGeometry x="484.5" y="114" width="19" height="19" as="geometry" />
        </mxCell>
        <mxCell id="NpOPQq9WhLzo8mYPJbSC-9" style="edgeStyle=none;curved=1;rounded=0;orthogonalLoop=1;jettySize=auto;html=1;entryX=0.5;entryY=1;entryDx=0;entryDy=0;fontSize=12;startSize=8;endSize=8;exitX=0;exitY=0.5;exitDx=0;exitDy=0;" edge="1" parent="1" source="NpOPQq9WhLzo8mYPJbSC-10" target="NpOPQq9WhLzo8mYPJbSC-6">
          <mxGeometry relative="1" as="geometry">
            <Array as="points">
              <mxPoint x="490" y="302" />
            </Array>
          </mxGeometry>
        </mxCell>
        <mxCell id="NpOPQq9WhLzo8mYPJbSC-10" value="Menampilkan ulang form login" style="rounded=1;whiteSpace=wrap;html=1;" vertex="1" parent="1">
          <mxGeometry x="707" y="249" width="186" height="60" as="geometry" />
        </mxCell>
        <mxCell id="NpOPQq9WhLzo8mYPJbSC-11" value="Start" style="text;html=1;align=center;verticalAlign=middle;whiteSpace=wrap;rounded=0;fontSize=16;" vertex="1" parent="1">
          <mxGeometry x="507" y="111" width="60" height="30" as="geometry" />
        </mxCell>
        <mxCell id="NpOPQq9WhLzo8mYPJbSC-12" style="edgeStyle=none;curved=1;rounded=0;orthogonalLoop=1;jettySize=auto;html=1;fontSize=12;startSize=8;endSize=8;" edge="1" parent="1" source="NpOPQq9WhLzo8mYPJbSC-14" target="NpOPQq9WhLzo8mYPJbSC-10">
          <mxGeometry relative="1" as="geometry" />
        </mxCell>
        <mxCell id="NpOPQq9WhLzo8mYPJbSC-13" style="edgeStyle=none;curved=1;rounded=0;orthogonalLoop=1;jettySize=auto;html=1;entryX=1;entryY=0.5;entryDx=0;entryDy=0;fontSize=12;startSize=8;endSize=8;" edge="1" parent="1" source="NpOPQq9WhLzo8mYPJbSC-14" target="NpOPQq9WhLzo8mYPJbSC-16">
          <mxGeometry relative="1" as="geometry">
            <Array as="points">
              <mxPoint x="999" y="188" />
            </Array>
          </mxGeometry>
        </mxCell>
        <mxCell id="NpOPQq9WhLzo8mYPJbSC-14" value="" style="rhombus;whiteSpace=wrap;html=1;" vertex="1" parent="1">
          <mxGeometry x="777" y="168" width="46" height="40" as="geometry" />
        </mxCell>
        <mxCell id="NpOPQq9WhLzo8mYPJbSC-15" style="edgeStyle=none;curved=1;rounded=0;orthogonalLoop=1;jettySize=auto;html=1;entryX=1;entryY=0.5;entryDx=0;entryDy=0;fontSize=12;startSize=8;endSize=8;" edge="1" parent="1" source="NpOPQq9WhLzo8mYPJbSC-16" target="NpOPQq9WhLzo8mYPJbSC-20">
          <mxGeometry relative="1" as="geometry" />
        </mxCell>
        <mxCell id="NpOPQq9WhLzo8mYPJbSC-16" value="Menampilkan halaman website" style="rounded=1;whiteSpace=wrap;html=1;" vertex="1" parent="1">
          <mxGeometry x="707" y="329" width="186" height="60" as="geometry" />
        </mxCell>
        <mxCell id="NpOPQq9WhLzo8mYPJbSC-17" value="ya" style="text;html=1;align=center;verticalAlign=middle;whiteSpace=wrap;rounded=0;fontSize=16;" vertex="1" parent="1">
          <mxGeometry x="820" y="148" width="60" height="30" as="geometry" />
        </mxCell>
        <mxCell id="NpOPQq9WhLzo8mYPJbSC-18" value="tidak" style="text;html=1;align=center;verticalAlign=middle;whiteSpace=wrap;rounded=0;fontSize=16;" vertex="1" parent="1">
          <mxGeometry x="805.75" y="196" width="60" height="30" as="geometry" />
        </mxCell>
        <mxCell id="NpOPQq9WhLzo8mYPJbSC-19" style="edgeStyle=none;curved=1;rounded=0;orthogonalLoop=1;jettySize=auto;html=1;entryX=0.5;entryY=0;entryDx=0;entryDy=0;fontSize=12;startSize=8;endSize=8;exitX=0.5;exitY=1;exitDx=0;exitDy=0;" edge="1" parent="1" source="NpOPQq9WhLzo8mYPJbSC-20" target="NpOPQq9WhLzo8mYPJbSC-22">
          <mxGeometry relative="1" as="geometry" />
        </mxCell>
        <mxCell id="NpOPQq9WhLzo8mYPJbSC-20" value="Pilih profile" style="rounded=1;whiteSpace=wrap;html=1;" vertex="1" parent="1">
          <mxGeometry x="401" y="331" width="186" height="60" as="geometry" />
        </mxCell>
        <mxCell id="NpOPQq9WhLzo8mYPJbSC-21" style="edgeStyle=none;curved=1;rounded=0;orthogonalLoop=1;jettySize=auto;html=1;entryX=1;entryY=0.5;entryDx=0;entryDy=0;fontSize=12;startSize=8;endSize=8;" edge="1" parent="1" source="NpOPQq9WhLzo8mYPJbSC-22" target="NpOPQq9WhLzo8mYPJbSC-26">
          <mxGeometry relative="1" as="geometry" />
        </mxCell>
        <mxCell id="NpOPQq9WhLzo8mYPJbSC-22" value="Menampilkan halaman profile" style="rounded=1;whiteSpace=wrap;html=1;" vertex="1" parent="1">
          <mxGeometry x="707" y="416" width="186" height="60" as="geometry" />
        </mxCell>
        <mxCell id="NpOPQq9WhLzo8mYPJbSC-23" value="" style="ellipse;whiteSpace=wrap;html=1;aspect=fixed;fillColor=#000000;" vertex="1" parent="1">
          <mxGeometry x="484.5" y="583.5" width="19" height="19" as="geometry" />
        </mxCell>
        <mxCell id="NpOPQq9WhLzo8mYPJbSC-24" value="Finish" style="text;html=1;align=center;verticalAlign=middle;whiteSpace=wrap;rounded=0;fontSize=16;" vertex="1" parent="1">
          <mxGeometry x="500" y="578" width="60" height="30" as="geometry" />
        </mxCell>
        <mxCell id="NpOPQq9WhLzo8mYPJbSC-25" style="edgeStyle=none;curved=1;rounded=0;orthogonalLoop=1;jettySize=auto;html=1;entryX=0.5;entryY=0;entryDx=0;entryDy=0;fontSize=12;startSize=8;endSize=8;" edge="1" parent="1" source="NpOPQq9WhLzo8mYPJbSC-26" target="NpOPQq9WhLzo8mYPJbSC-28">
          <mxGeometry relative="1" as="geometry" />
        </mxCell>
        <mxCell id="NpOPQq9WhLzo8mYPJbSC-26" value="Pilih ubah password&amp;nbsp;" style="rounded=1;whiteSpace=wrap;html=1;" vertex="1" parent="1">
          <mxGeometry x="401" y="416" width="186" height="60" as="geometry" />
        </mxCell>
        <mxCell id="NpOPQq9WhLzo8mYPJbSC-27" style="edgeStyle=none;curved=1;rounded=0;orthogonalLoop=1;jettySize=auto;html=1;entryX=0.5;entryY=0;entryDx=0;entryDy=0;fontSize=12;startSize=8;endSize=8;" edge="1" parent="1" source="NpOPQq9WhLzo8mYPJbSC-28" target="NpOPQq9WhLzo8mYPJbSC-23">
          <mxGeometry relative="1" as="geometry" />
        </mxCell>
        <mxCell id="NpOPQq9WhLzo8mYPJbSC-28" value="Ubah password dan simpan" style="rounded=1;whiteSpace=wrap;html=1;" vertex="1" parent="1">
          <mxGeometry x="401" y="499" width="186" height="60" as="geometry" />
        </mxCell>
      </root>
    </mxGraphModel>
  </diagram>
</mxfile>
